<?xml version="1.0" encoding="UTF-8" standalone="no"?>
<!-- Created with Inkscape (http://www.inkscape.org/) -->

<svg
   xmlns:dc="http://purl.org/dc/elements/1.1/"
   xmlns:cc="http://creativecommons.org/ns#"
   xmlns:rdf="http://www.w3.org/1999/02/22-rdf-syntax-ns#"
   xmlns:svg="http://www.w3.org/2000/svg"
   xmlns="http://www.w3.org/2000/svg"
   xmlns:sodipodi="http://sodipodi.sourceforge.net/DTD/sodipodi-0.dtd"
   xmlns:inkscape="http://www.inkscape.org/namespaces/inkscape"
   width="744.09448819"
   height="1052.3622047"
   id="svg2"
   version="1.1"
   inkscape:version="0.48.5 r10040"
   inkscape:export-filename="C:\Users\aloha\SkyDrive\Documents\blog2014\img\bin-parsing.png"
   inkscape:export-xdpi="89.988571"
   inkscape:export-ydpi="89.988571"
   sodipodi:docname="New document 1">
  <defs
     id="defs4">
    <marker
       inkscape:stockid="Arrow2Lend"
       orient="auto"
       refY="0.0"
       refX="0.0"
       id="Arrow2Lend"
       style="overflow:visible;">
      <path
         id="path3873"
         style="fill-rule:evenodd;stroke-width:0.62500000;stroke-linejoin:round;"
         d="M 8.7185878,4.0337352 L -2.2072895,0.016013256 L 8.7185884,-4.0017078 C 6.9730900,-1.6296469 6.9831476,1.6157441 8.7185878,4.0337352 z "
         transform="scale(1.1) rotate(180) translate(1,0)" />
    </marker>
  </defs>
  <sodipodi:namedview
     id="base"
     pagecolor="#ffffff"
     bordercolor="#666666"
     borderopacity="1.0"
     inkscape:pageopacity="0.0"
     inkscape:pageshadow="2"
     inkscape:zoom="1.4"
     inkscape:cx="419.40373"
     inkscape:cy="751.88645"
     inkscape:document-units="px"
     inkscape:current-layer="layer1"
     showgrid="false"
     inkscape:window-width="1858"
     inkscape:window-height="1057"
     inkscape:window-x="-8"
     inkscape:window-y="-8"
     inkscape:window-maximized="1" />
  <metadata
     id="metadata7">
    <rdf:RDF>
      <cc:Work
         rdf:about="">
        <dc:format>image/svg+xml</dc:format>
        <dc:type
           rdf:resource="http://purl.org/dc/dcmitype/StillImage" />
        <dc:title></dc:title>
      </cc:Work>
    </rdf:RDF>
  </metadata>
  <g
     inkscape:label="Layer 1"
     inkscape:groupmode="layer"
     id="layer1">
    <rect
       style="opacity:0.8;fill:#c6c3c3;fill-opacity:0.98823529;stroke:#cd1414;stroke-width:0.2;stroke-linejoin:round;stroke-miterlimit:4;stroke-opacity:1;stroke-dasharray:none;stroke-dashoffset:0"
       id="rect2985"
       width="530"
       height="22.857143"
       x="46.42857"
       y="18.076468" />
    <path
       d="m 46.32857,17.976468 0,23.057143 m 10,-23.057143 0,23.057143 m 9.999997,-23.057143 0,23.057143 m 10,-23.057143 0,23.057143 m 10,-23.057143 0,23.057143 m 10,-23.057143 0,23.057143 m 10.000003,-23.057143 0,23.057143 m 10,-23.057143 0,23.057143 m 10,-23.057143 0,23.057143 m 10,-23.057143 0,23.057143 m 10,-23.057143 0,23.057143 m 10,-23.057143 0,23.057143 m 10,-23.057143 0,23.057143 m 10,-23.057143 0,23.057143 m 10,-23.057143 0,23.057143 m 10,-23.057143 0,23.057143 m 10,-23.057143 0,23.057143 m 10,-23.057143 0,23.057143 m 10,-23.057143 0,23.057143 m 10,-23.057143 0,23.057143 m 10,-23.057143 0,23.057143 m 10,-23.057143 0,23.057143 m 10,-23.057143 0,23.057143 m 10,-23.057143 0,23.057143 m 10,-23.057143 0,23.057143 m 10,-23.057143 0,23.057143 m 10,-23.057143 0,23.057143 m 10,-23.057143 0,23.057143 m 10,-23.057143 0,23.057143 m 10,-23.057143 0,23.057143 m 10,-23.057143 0,23.057143 m 10,-23.057143 0,23.057143 m 10,-23.057143 0,23.057143 m 10,-23.057143 0,23.057143 m 10,-23.057143 0,23.057143 m 10,-23.057143 0,23.057143 m 10,-23.057143 0,23.057143 m 10,-23.057143 0,23.057143 m 10,-23.057143 0,23.057143 m 10,-23.057143 0,23.057143 m 10,-23.057143 0,23.057143 m 10,-23.057143 0,23.057143 m 10,-23.057143 0,23.057143 m 10,-23.057143 0,23.057143 m 10,-23.057143 0,23.057143 m 10,-23.057143 0,23.057143 m 10,-23.057143 0,23.057143 m 10,-23.057143 0,23.057143 m 10,-23.057143 0,23.057143 m 10,-23.057143 0,23.057143 m 10,-23.057143 0,23.057143 m 10,-23.057143 0,23.057143 m 10,-23.057143 0,23.057143 m 10,-23.057143 0,23.057143 m -530,-23.057143 530.2,0 m -530.2,22.1 530.2,0"
       style="fill:none;stroke:#000000;stroke-width:1pt;stroke-linecap:butt;stroke-linejoin:miter;stroke-opacity:1"
       id="path3023"
       inkscape:connector-curvature="0" />
    <path
       d="m 46.32857,17.976468 0,23.057143 m 10,-23.057143 0,23.057143 m 9.999997,-23.057143 0,23.057143 m 10,-23.057143 0,23.057143 m 10,-23.057143 0,23.057143 m 10,-23.057143 0,23.057143 m 10.000003,-23.057143 0,23.057143 m 10,-23.057143 0,23.057143 m 10,-23.057143 0,23.057143 m 10,-23.057143 0,23.057143 m 10,-23.057143 0,23.057143 m 10,-23.057143 0,23.057143 m 10,-23.057143 0,23.057143 m 10,-23.057143 0,23.057143 m 10,-23.057143 0,23.057143 m 10,-23.057143 0,23.057143 m 10,-23.057143 0,23.057143 m 10,-23.057143 0,23.057143 m 10,-23.057143 0,23.057143 m 10,-23.057143 0,23.057143 m 10,-23.057143 0,23.057143 m 10,-23.057143 0,23.057143 m 10,-23.057143 0,23.057143 m 10,-23.057143 0,23.057143 m 10,-23.057143 0,23.057143 m 10,-23.057143 0,23.057143 m 10,-23.057143 0,23.057143 m 10,-23.057143 0,23.057143 m 10,-23.057143 0,23.057143 m 10,-23.057143 0,23.057143 m 10,-23.057143 0,23.057143 m 10,-23.057143 0,23.057143 m 10,-23.057143 0,23.057143 m 10,-23.057143 0,23.057143 m 10,-23.057143 0,23.057143 m 10,-23.057143 0,23.057143 m 10,-23.057143 0,23.057143 m 10,-23.057143 0,23.057143 m 10,-23.057143 0,23.057143 m 10,-23.057143 0,23.057143 m 10,-23.057143 0,23.057143 m 10,-23.057143 0,23.057143 m 10,-23.057143 0,23.057143 m 10,-23.057143 0,23.057143 m 10,-23.057143 0,23.057143 m 10,-23.057143 0,23.057143 m 10,-23.057143 0,23.057143 m 10,-23.057143 0,23.057143 m 10,-23.057143 0,23.057143 m 10,-23.057143 0,23.057143 m 10,-23.057143 0,23.057143 m 10,-23.057143 0,23.057143 m 10,-23.057143 0,23.057143 m 10,-23.057143 0,23.057143 m -530,-23.057143 530.2,0 m -530.2,22.1 530.2,0"
       style="fill:none;stroke:#000000;stroke-width:1pt;stroke-linecap:butt;stroke-linejoin:miter;stroke-opacity:1"
       id="path3025"
       inkscape:connector-curvature="0" />
    <rect
       style="opacity:0.8;fill:#c6c3c3;fill-opacity:0.98823529;stroke:#cd1414;stroke-width:0.35647005;stroke-linejoin:round;stroke-miterlimit:4;stroke-opacity:1;stroke-dasharray:none;stroke-dashoffset:0"
       id="rect3027"
       width="309.94907"
       height="22.841377"
       x="310.72217"
       y="65.227203" />
    <rect
       style="opacity:0.8;fill:#c6c3c3;fill-opacity:0.98823529;stroke:#cd1414;stroke-width:0.21171924;stroke-linejoin:round;stroke-miterlimit:4;stroke-opacity:1;stroke-dasharray:none;stroke-dashoffset:0"
       id="rect3027-1"
       width="109.33644"
       height="22.841377"
       x="176.07933"
       y="65.227203" />
    <rect
       style="opacity:0.8;fill:#c6c3c3;fill-opacity:0.98823529;stroke:#cd1414;stroke-width:0.21174164;stroke-linejoin:round;stroke-miterlimit:4;stroke-opacity:1;stroke-dasharray:none;stroke-dashoffset:0"
       id="rect3027-7"
       width="109.35958"
       height="22.841377"
       x="38.222187"
       y="65.227203" />
    <path
       style="fill:none;stroke:#000000;stroke-width:1px;stroke-linecap:butt;stroke-linejoin:miter;stroke-opacity:1"
       d="M 45.714286,38.790753 38.571429,64.505039"
       id="path3056"
       inkscape:connector-curvature="0" />
    <path
       style="fill:none;stroke:#000000;stroke-width:1px;stroke-linecap:butt;stroke-linejoin:miter;stroke-opacity:1"
       d="M 150.71429,65.93361 146.42857,39.505039 177.14286,65.93361"
       id="path3058"
       inkscape:connector-curvature="0" />
    <path
       style="fill:none;stroke:#000000;stroke-width:1px;stroke-linecap:butt;stroke-linejoin:miter;stroke-opacity:1"
       d="M 288.57143,64.505039 267.14286,40.219324"
       id="path3060"
       inkscape:connector-curvature="0" />
    <path
       style="fill:none;stroke:#000000;stroke-width:1px;stroke-linecap:butt;stroke-linejoin:miter;stroke-opacity:1"
       d="M 310.71429,65.219324 266.42857,39.505039"
       id="path3062"
       inkscape:connector-curvature="0" />
    <path
       style="fill:none;stroke:#000000;stroke-width:1px;stroke-linecap:butt;stroke-linejoin:miter;stroke-opacity:1"
       d="M 619.28572,65.219324 576.42857,39.505039"
       id="path3064"
       inkscape:connector-curvature="0" />
    <path
       d="m 38.114305,65.119321 0,23.057142 m 10,-23.057142 0,23.057142 m 10,-23.057142 0,23.057142 m 10.000002,-23.057142 0,23.057142 m 10,-23.057142 0,23.057142 m 10,-23.057142 0,23.057142 m 10,-23.057142 0,23.057142 m 10.000003,-23.057142 0,23.057142 m 10,-23.057142 0,23.057142 m 10,-23.057142 0,23.057142 m 10,-23.057142 0,23.057142 m 10,-23.057142 0,23.057142 M 38.114305,65.119321 l 113.771425,0 m -113.771425,22.1 113.771425,0"
       style="fill:none;stroke:#000000;stroke-width:1pt;stroke-linecap:butt;stroke-linejoin:miter;stroke-opacity:1"
       id="path3068"
       inkscape:connector-curvature="0" />
    <path
       d="m 175.97145,65.119321 0,23.057142 m 10,-23.057142 0,23.057142 m 10,-23.057142 0,23.057142 m 10,-23.057142 0,23.057142 m 10,-23.057142 0,23.057142 m 10,-23.057142 0,23.057142 m 10,-23.057142 0,23.057142 m 10,-23.057142 0,23.057142 m 10,-23.057142 0,23.057142 m 10,-23.057142 0,23.057142 m 10,-23.057142 0,23.057142 m 10,-23.057142 0,23.057142 m -110,-23.057142 113.77143,0 m -113.77143,22.1 113.77143,0"
       style="fill:none;stroke:#000000;stroke-width:1pt;stroke-linecap:butt;stroke-linejoin:miter;stroke-opacity:1"
       id="path3070"
       inkscape:connector-curvature="0" />
    <path
       d="m 310.54394,65.048968 0,23.197848 m 10,-23.197848 0,23.197848 m 10,-23.197848 0,23.197848 m 10,-23.197848 0,23.197848 m 10,-23.197848 0,23.197848 m 10,-23.197848 0,23.197848 m 10,-23.197848 0,23.197848 m 10,-23.197848 0,23.197848 m 10,-23.197848 0,23.197848 m 10,-23.197848 0,23.197848 m 10,-23.197848 0,23.197848 m 10,-23.197848 0,23.197848 m 10,-23.197848 0,23.197848 m 10,-23.197848 0,23.197848 m 10,-23.197848 0,23.197848 m 10,-23.197848 0,23.197848 m 10,-23.197848 0,23.197848 m 10,-23.197848 0,23.197848 m 10,-23.197848 0,23.197848 m 10,-23.197848 0,23.197848 m 10,-23.197848 0,23.197848 m 10,-23.197848 0,23.197848 m 10,-23.197848 0,23.197848 m 10,-23.197848 0,23.197848 m 10,-23.197848 0,23.197848 m 10,-23.197848 0,23.197848 m 10,-23.197848 0,23.197848 m 10,-23.197848 0,23.197848 m 10,-23.197848 0,23.197848 m 10,-23.197848 0,23.197848 m 10,-23.197848 0,23.197848 m 10,-23.197848 0,23.197848 m -310,-23.197848 310.30554,0 m -310.30554,22.100001 310.30554,0"
       style="fill:none;stroke:#000000;stroke-width:1pt;stroke-linecap:butt;stroke-linejoin:miter;stroke-opacity:1"
       id="path3072"
       inkscape:connector-curvature="0" />
    <path
       style="fill:none;stroke:#b44636;stroke-width:1;stroke-linecap:butt;stroke-linejoin:miter;stroke-miterlimit:4;stroke-opacity:0.98823529;stroke-dasharray:none;marker-end:url(#Arrow2Lend)"
       d="m 219.28572,86.647895 c 0,0 97.14286,57.857145 97.85714,0.714286"
       id="path3078"
       inkscape:connector-curvature="0" />
    <text
       xml:space="preserve"
       style="font-size:40px;font-style:normal;font-weight:normal;line-height:125%;letter-spacing:0px;word-spacing:0px;fill:#000000;fill-opacity:1;stroke:none;font-family:Sans"
       x="186.42857"
       y="99.505035"
       id="text4476"
       sodipodi:linespacing="125%"><tspan
         sodipodi:role="line"
         x="186.42857"
         y="99.505035"
         style="font-size:10px;fill:#b44636;fill-opacity:0.94117647"
         id="tspan4536">Field: </tspan><tspan
         sodipodi:role="line"
         x="186.42857"
         y="112.00504"
         style="font-size:10px;fill:#b44636;fill-opacity:0.94117647"
         id="tspan4540">size of Array B</tspan></text>
    <text
       xml:space="preserve"
       style="font-size:40px;font-style:normal;font-weight:normal;line-height:125%;letter-spacing:0px;word-spacing:0px;fill:#000000;fill-opacity:1;stroke:none;font-family:Sans"
       x="48.571423"
       y="59.505039"
       id="text4480"
       sodipodi:linespacing="125%"><tspan
         sodipodi:role="line"
         x="48.571423"
         y="59.505039"
         id="tspan4484"
         style="font-size:10px">Record 1 (fixed size)</tspan></text>
    <text
       xml:space="preserve"
       style="font-size:40px;font-style:normal;font-weight:normal;line-height:125%;letter-spacing:0px;word-spacing:0px;fill:#000000;fill-opacity:1;stroke:none;font-family:Sans"
       x="178.26772"
       y="58.324795"
       id="text4480-4"
       sodipodi:linespacing="125%"><tspan
         sodipodi:role="line"
         x="178.26772"
         y="58.324795"
         id="tspan4484-0"
         style="font-size:10px">Record 2 (fixed size)</tspan></text>
    <text
       xml:space="preserve"
       style="font-size:40px;font-style:normal;font-weight:normal;line-height:125%;letter-spacing:0px;word-spacing:0px;fill:#000000;fill-opacity:1;stroke:none;font-family:Sans"
       x="323.91357"
       y="57.807217"
       id="text4480-9"
       sodipodi:linespacing="125%"><tspan
         sodipodi:role="line"
         x="323.91357"
         y="57.807217"
         id="tspan4484-4"
         style="font-size:10px">Array B (varying size)</tspan></text>
    <rect
       style="fill:#b44636;fill-opacity:0.98823529;stroke:#cd1414;stroke-width:1;stroke-linejoin:round;stroke-miterlimit:4;stroke-opacity:1;stroke-dasharray:none;stroke-dashoffset:0"
       id="rect4530"
       width="8.5714283"
       height="20"
       x="216.42857"
       y="66.647896" />
    <text
       xml:space="preserve"
       style="font-size:40px;font-style:normal;font-weight:normal;line-height:125%;letter-spacing:0px;word-spacing:0px;fill:#000000;fill-opacity:1;stroke:none;font-family:Sans"
       x="83.913582"
       y="12.807218"
       id="text4480-8"
       sodipodi:linespacing="125%"><tspan
         sodipodi:role="line"
         x="83.913582"
         y="12.807218"
         id="tspan4484-08"
         style="font-size:10px">Binary stream</tspan></text>
    <path
       inkscape:connector-curvature="0"
       d="m 585.97144,17.976468 0,23.057142 m 10,-23.057142 0,23.057142 m 10,-23.057142 0,23.057142 m 10,-23.057142 0,23.057142 m 10,-23.057142 0,23.057142 m 10,-23.057142 0,23.057142 m 10,-23.057142 0,23.057142 m 10,-23.057142 0,23.057142 m 10,-23.057142 0,23.057142 m 10,-23.057142 0,23.057142 m 10,-23.057142 0,23.057142 m 10,-23.057142 0,23.057142 m -110,-23.057142 113.77142,0 m -113.77142,22.1 113.77142,0"
       style="fill:none;stroke:#000000;stroke-width:1pt;stroke-linecap:butt;stroke-linejoin:miter;stroke-opacity:1"
       id="path3068-7" />
  </g>
</svg>
