  0
SECTION
  2
HEADER
  9
$ACADVER
  1
AC1012
  9
$DWGCODEPAGE
  3
ansi_1252
  9
$INSBASE
 10
0.0
 20
0.0
 30
0.0
  9
$EXTMIN
 10
1.000000000000000E+20
 20
1.000000000000000E+20
 30
1.000000000000000E+20
  9
$EXTMAX
 10
-1.000000000000000E+20
 20
-1.000000000000000E+20
 30
-1.000000000000000E+20
  9
$LIMMIN
 10
0.0
 20
0.0
  9
$LIMMAX
 10
12.0
 20
9.0
  9
$ORTHOMODE
 70
     0
  9
$REGENMODE
 70
     1
  9
$FILLMODE
 70
     1
  9
$QTEXTMODE
 70
     0
  9
$MIRRTEXT
 70
     1
  9
$DRAGMODE
 70
     2
  9
$LTSCALE
 40
1.0
  9
$OSMODE
 70
    37
  9
$ATTMODE
 70
     1
  9
$TEXTSIZE
 40
0.2
  9
$TRACEWID
 40
0.05
  9
$TEXTSTYLE
  7
STANDARD
  9
$CLAYER
  8
0
  9
$CELTYPE
  6
BYLAYER
  9
$CECOLOR
 62
   256
  9
$CELTSCALE
 40
1.0
  9
$DELOBJ
 70
     1
  9
$DISPSILH
 70
     0
  9
$DIMSCALE
 40
1.0
  9
$DIMASZ
 40
0.18
  9
$DIMEXO
 40
0.0625
  9
$DIMDLI
 40
0.38
  9
$DIMRND
 40
0.0
  9
$DIMDLE
 40
0.0
  9
$DIMEXE
 40
0.18
  9
$DIMTP
 40
0.0
  9
$DIMTM
 40
0.0
  9
$DIMTXT
 40
0.18
  9
$DIMCEN
 40
0.09
  9
$DIMTSZ
 40
0.0
  9
$DIMTOL
 70
     0
  9
$DIMLIM
 70
     0
  9
$DIMTIH
 70
     1
  9
$DIMTOH
 70
     1
  9
$DIMSE1
 70
     0
  9
$DIMSE2
 70
     0
  9
$DIMTAD
 70
     0
  9
$DIMZIN
 70
     0
  9
$DIMBLK
  1

  9
$DIMASO
 70
     1
  9
$DIMSHO
 70
     1
  9
$DIMPOST
  1

  9
$DIMAPOST
  1

  9
$DIMALT
 70
     0
  9
$DIMALTD
 70
     2
  9
$DIMALTF
 40
25.4
  9
$DIMLFAC
 40
1.0
  9
$DIMTOFL
 70
     0
  9
$DIMTVP
 40
0.0
  9
$DIMTIX
 70
     0
  9
$DIMSOXD
 70
     0
  9
$DIMSAH
 70
     0
  9
$DIMBLK1
  1

  9
$DIMBLK2
  1

  9
$DIMSTYLE
  2
STANDARD
  9
$DIMCLRD
 70
     0
  9
$DIMCLRE
 70
     0
  9
$DIMCLRT
 70
     0
  9
$DIMTFAC
 40
1.0
  9
$DIMGAP
 40
0.09
  9
$DIMJUST
 70
     0
  9
$DIMSD1
 70
     0
  9
$DIMSD2
 70
     0
  9
$DIMTOLJ
 70
     1
  9
$DIMTZIN
 70
     0
  9
$DIMALTZ
 70
     0
  9
$DIMALTTZ
 70
     0
  9
$DIMFIT
 70
     3
  9
$DIMUPT
 70
     0
  9
$DIMUNIT
 70
     2
  9
$DIMDEC
 70
     4
  9
$DIMTDEC
 70
     4
  9
$DIMALTU
 70
     2
  9
$DIMALTTD
 70
     2
  9
$DIMTXSTY
  7
STANDARD
  9
$DIMAUNIT
 70
     0
  9
$LUNITS
 70
     2
  9
$LUPREC
 70
     4
  9
$SKETCHINC
 40
0.1
  9
$FILLETRAD
 40
0.5
  9
$AUNITS
 70
     0
  9
$AUPREC
 70
     0
  9
$MENU
  1
.
  9
$ELEVATION
 40
0.0
  9
$PELEVATION
 40
0.0
  9
$THICKNESS
 40
0.0
  9
$LIMCHECK
 70
     0
  9
$CHAMFERA
 40
0.0
  9
$CHAMFERB
 40
0.0
  9
$CHAMFERC
 40
0.0
  9
$CHAMFERD
 40
0.0
  9
$SKPOLY
 70
     0
  9
$TDCREATE
 40
2456891.461829711
  9
$TDUPDATE
 40
2456891.461829907
  9
$TDINDWG
 40
0.0000000116
  9
$TDUSRTIMER
 40
0.0000000116
  9
$USRTIMER
 70
     1
  9
$ANGBASE
 50
0.0
  9
$ANGDIR
 70
     0
  9
$PDMODE
 70
     0
  9
$PDSIZE
 40
0.0
  9
$PLINEWID
 40
0.0
  9
$COORDS
 70
     1
  9
$SPLFRAME
 70
     0
  9
$SPLINETYPE
 70
     6
  9
$SPLINESEGS
 70
     8
  9
$ATTDIA
 70
     0
  9
$ATTREQ
 70
     1
  9
$HANDLING
 70
     1
  9
$HANDSEED
  5
23F
  9
$SURFTAB1
 70
     6
  9
$SURFTAB2
 70
     6
  9
$SURFTYPE
 70
     6
  9
$SURFU
 70
     6
  9
$SURFV
 70
     6
  9
$UCSNAME
  2

  9
$UCSORG
 10
0.0
 20
0.0
 30
0.0
  9
$UCSXDIR
 10
1.0
 20
0.0
 30
0.0
  9
$UCSYDIR
 10
0.0
 20
1.0
 30
0.0
  9
$PUCSNAME
  2

  9
$PUCSORG
 10
0.0
 20
0.0
 30
0.0
  9
$PUCSXDIR
 10
1.0
 20
0.0
 30
0.0
  9
$PUCSYDIR
 10
0.0
 20
1.0
 30
0.0
  9
$USERI1
 70
     0
  9
$USERI2
 70
     0
  9
$USERI3
 70
     0
  9
$USERI4
 70
     0
  9
$USERI5
 70
     0
  9
$USERR1
 40
0.0
  9
$USERR2
 40
0.0
  9
$USERR3
 40
0.0
  9
$USERR4
 40
0.0
  9
$USERR5
 40
0.0
  9
$WORLDVIEW
 70
     1
  9
$SHADEDGE
 70
     3
  9
$SHADEDIF
 70
    70
  9
$TILEMODE
 70
     1
  9
$MAXACTVP
 70
    64
  9
$PINSBASE
 10
0.0
 20
0.0
 30
0.0
  9
$PLIMCHECK
 70
     0
  9
$PEXTMIN
 10
1.000000000000000E+20
 20
1.000000000000000E+20
 30
1.000000000000000E+20
  9
$PEXTMAX
 10
-1.000000000000000E+20
 20
-1.000000000000000E+20
 30
-1.000000000000000E+20
  9
$PLIMMIN
 10
0.0
 20
0.0
  9
$PLIMMAX
 10
12.0
 20
9.0
  9
$UNITMODE
 70
     0
  9
$VISRETAIN
 70
     1
  9
$PLINEGEN
 70
     0
  9
$PSLTSCALE
 70
     1
  9
$TREEDEPTH
 70
  3020
  9
$PICKSTYLE
 70
     1
  9
$CMLSTYLE
  2
STANDARD
  9
$CMLJUST
 70
     0
  9
$CMLSCALE
 40
1.0
  9
$SAVEIMAGES
 70
     1
  0
ENDSEC
  0
SECTION
  2
CLASSES
  0
CLASS
  1
ACDBDICTIONARYWDFLT
  2
AcDbDictionaryWithDefault
  3
ObjectDBX Classes
 90
    32768
280
     0
281
     0
  0
CLASS
  1
VISUALSTYLE
  2
AcDbVisualStyle
  3
ObjectDBX Classes
 90
     4095
280
     0
281
     0
  0
CLASS
  1
MATERIAL
  2
AcDbMaterial
  3
ObjectDBX Classes
 90
     1153
280
     0
281
     0
  0
CLASS
  1
SCALE
  2
AcDbScale
  3
ObjectDBX Classes
 90
     1153
280
     0
281
     0
  0
CLASS
  1
SUN
  2
AcDbSun
  3
SCENEOE
 90
     1153
280
     0
281
     0
  0
CLASS
  1
DICTIONARYVAR
  2
AcDbDictionaryVar
  3
ObjectDBX Classes
 90
        0
280
     0
281
     0
  0
CLASS
  1
XRECORD
  2
AcDbXrecord
  3
ObjectDBX Classes
 90
    32768
280
     0
281
     0
  0
CLASS
  1
LWPOLYLINE
  2
AcDbPolyline
  3
ObjectDBX Classes
 90
    32768
280
     0
281
     1
  0
CLASS
  1
HATCH
  2
AcDbHatch
  3
ObjectDBX Classes
 90
    32768
280
     0
281
     1
  0
CLASS
  1
ACDBPLACEHOLDER
  2
AcDbPlaceHolder
  3
ObjectDBX Classes
 90
        0
280
     0
281
     0
  0
CLASS
  1
LAYOUT
  2
AcDbLayout
  3
ObjectDBX Classes
 90
        0
280
     0
281
     0
  0
ENDSEC
  0
SECTION
  2
TABLES
  0
TABLE
  2
VPORT
  5
8
330
0
100
AcDbSymbolTable
 70
     1
  0
VPORT
  5
29
330
8
100
AcDbSymbolTableRecord
100
AcDbViewportTableRecord
  2
*ACTIVE
 70
     0
 10
0.0
 20
0.0
 11
1.0
 21
1.0
 12
0.0
 22
0.0
 13
0.0
 23
0.0
 14
0.5
 24
0.5
 15
0.5
 25
0.5
 16
0.0
 26
0.0
 36
1.0
 17
0.0
 27
0.0
 37
-1000.0
 40
16536.97018231336
 41
1.915289256198347
 42
50.0
 43
14393.66640325359
 44
17620.19893730994
 50
0.0
 51
0.0
 71
     0
 72
   100
 73
     1
 74
     3
 75
     0
 76
     0
 77
     0
 78
     0
  0
ENDTAB
  0
TABLE
  2
LTYPE
  5
5
330
0
100
AcDbSymbolTable
 70
     1
  0
LTYPE
  5
14
330
5
100
AcDbSymbolTableRecord
100
AcDbLinetypeTableRecord
  2
BYBLOCK
 70
     0
  3

 72
    65
 73
     0
 40
0.0
  0
LTYPE
  5
15
330
5
100
AcDbSymbolTableRecord
100
AcDbLinetypeTableRecord
  2
BYLAYER
 70
     0
  3

 72
    65
 73
     0
 40
0.0
  0
LTYPE
  5
16
330
5
100
AcDbSymbolTableRecord
100
AcDbLinetypeTableRecord
  2
CONTINUOUS
 70
     0
  3
Solid line
 72
    65
 73
     0
 40
0.0
  0
ENDTAB
  0
TABLE
  2
LAYER
  5
2
330
0
100
AcDbSymbolTable
 70
     3
  0
LAYER
  5
10
330
2
100
AcDbSymbolTableRecord
100
AcDbLayerTableRecord
  2
0
 70
     0
 62
     7
  6
CONTINUOUS
  0
LAYER
  5
6A
330
2
100
AcDbSymbolTableRecord
100
AcDbLayerTableRecord
  2
PROFILEEDGES
 70
     0
 62
     7
  6
CONTINUOUS
  0
LAYER
  5
6B
330
2
100
AcDbSymbolTableRecord
100
AcDbLayerTableRecord
  2
SECTIONCUTEDGES
 70
     0
 62
     7
  6
CONTINUOUS
  0
ENDTAB
  0
TABLE
  2
STYLE
  5
3
330
0
100
AcDbSymbolTable
 70
     1
  0
STYLE
  5
11
330
3
100
AcDbSymbolTableRecord
100
AcDbTextStyleTableRecord
  2
STANDARD
 70
     0
 40
0.0
 41
1.0
 50
0.0
 71
     0
 42
0.2
  3
txt
  4

  0
ENDTAB
  0
TABLE
  2
VIEW
  5
6
330
0
100
AcDbSymbolTable
 70
     0
  0
ENDTAB
  0
TABLE
  2
UCS
  5
7
330
0
100
AcDbSymbolTable
 70
     0
  0
ENDTAB
  0
TABLE
  2
APPID
  5
9
330
0
100
AcDbSymbolTable
 70
     1
  0
APPID
  5
12
330
9
100
AcDbSymbolTableRecord
100
AcDbRegAppTableRecord
  2
ACAD
 70
     0
  0
ENDTAB
  0
TABLE
  2
DIMSTYLE
  5
A
330
0
100
AcDbSymbolTable
 70
     1
  0
DIMSTYLE
105
27
330
A
100
AcDbSymbolTableRecord
100
AcDbDimStyleTableRecord
  2
STANDARD
 70
     0
  3

  4

  5

  6

  7

 40
1.0
 41
0.18
 42
0.0625
 43
0.38
 44
0.18
 45
0.0
 46
0.0
 47
0.0
 48
0.0
140
0.18
141
0.09
142
0.0
143
25.4
144
1.0
145
0.0
146
1.0
147
0.09
 71
     0
 72
     0
 73
     1
 74
     1
 75
     0
 76
     0
 77
     0
 78
     0
170
     0
171
     2
172
     0
173
     0
174
     0
175
     0
176
     0
177
     0
178
     0
270
     2
271
     4
272
     4
273
     2
274
     2
340
11
275
     0
280
     0
281
     0
282
     0
283
     1
284
     0
285
     0
286
     0
287
     3
288
     0
  0
ENDTAB
  0
TABLE
  2
BLOCK_RECORD
  5
1
330
0
100
AcDbSymbolTable
 70
     1
  0
BLOCK_RECORD
  5
1F
330
1
100
AcDbSymbolTableRecord
100
AcDbBlockTableRecord
  2
*MODEL_SPACE
  0
BLOCK_RECORD
  5
1B
330
1
100
AcDbSymbolTableRecord
100
AcDbBlockTableRecord
  2
*PAPER_SPACE
  0
ENDTAB
  0
ENDSEC
  0
SECTION
  2
BLOCKS
  0
BLOCK
  5
20
330
1F
100
AcDbEntity
  8
0
100
AcDbBlockBegin
  2
*MODEL_SPACE
 70
     0
 10
0.0
 20
0.0
 30
0.0
  3
*MODEL_SPACE
  1

  0
ENDBLK
  5
21
330
1F
100
AcDbEntity
  8
0
100
AcDbBlockEnd
  0
BLOCK
  5
1C
330
1B
100
AcDbEntity
 67
     1
  8
0
100
AcDbBlockBegin
  2
*PAPER_SPACE
 70
     0
 10
0.0
 20
0.0
 30
0.0
  3
*PAPER_SPACE
  1

  0
ENDBLK
  5
1D
330
1B
100
AcDbEntity
 67
     1
  8
0
100
AcDbBlockEnd
  0
ENDSEC
  0
SECTION
  2
ENTITIES
  0
POLYLINE
  5
6C
330
1F
100
AcDbEntity
  8
0
100
AcDb2dPolyline
 66
     1
 10
0.0
 20
0.0
 30
0.0
  0
VERTEX
  5
171
330
6C
100
AcDbEntity
  8
0
100
AcDbVertex
100
AcDb2dVertex
 10
160.2732377604631
 20
1503.308170142843
 30
0.0
 40
34.16729376511025
 41
34.16729376511025
  0
VERTEX
  5
172
330
6C
100
AcDbEntity
  8
0
100
AcDbVertex
100
AcDb2dVertex
 10
160.2732377604631
 20
1232.420670142843
 30
0.0
 40
34.16729376511025
 41
34.16729376511025
  0
SEQEND
  5
1FD
330
6C
100
AcDbEntity
  8
0
  0
POLYLINE
  5
6D
330
1F
100
AcDbEntity
  8
0
100
AcDb2dPolyline
 66
     1
 10
0.0
 20
0.0
 30
0.0
  0
VERTEX
  5
173
330
6D
100
AcDbEntity
  8
0
100
AcDbVertex
100
AcDb2dVertex
 10
160.2732377604631
 20
-663.7918298571574
 30
0.0
 40
34.16729376511025
 41
34.16729376511025
  0
VERTEX
  5
174
330
6D
100
AcDbEntity
  8
0
100
AcDbVertex
100
AcDb2dVertex
 10
509.7563281573285
 20
-663.7918298571574
 30
0.0
 40
34.16729376511025
 41
34.16729376511025
  0
SEQEND
  5
1FE
330
6D
100
AcDbEntity
  8
0
  0
POLYLINE
  5
6E
330
1F
100
AcDbEntity
  8
0
100
AcDb2dPolyline
 66
     1
 10
0.0
 20
0.0
 30
0.0
  0
VERTEX
  5
175
330
6E
100
AcDbEntity
  8
0
100
AcDbVertex
100
AcDb2dVertex
 10
4999.173237760463
 20
-663.7918298571574
 30
0.0
 40
34.16729376511025
 41
34.16729376511025
  0
VERTEX
  5
176
330
6E
100
AcDbEntity
  8
0
100
AcDbVertex
100
AcDb2dVertex
 10
4999.173237760463
 20
-392.9043298571574
 30
0.0
 40
34.16729376511025
 41
34.16729376511025
  0
SEQEND
  5
1FF
330
6E
100
AcDbEntity
  8
0
  0
POLYLINE
  5
6F
330
1F
100
AcDbEntity
  8
0
100
AcDb2dPolyline
 66
     1
 10
0.0
 20
0.0
 30
0.0
  0
VERTEX
  5
177
330
6F
100
AcDbEntity
  8
0
100
AcDbVertex
100
AcDb2dVertex
 10
4999.173237760463
 20
1503.308170142843
 30
0.0
 40
34.16729376511025
 41
34.16729376511025
  0
VERTEX
  5
178
330
6F
100
AcDbEntity
  8
0
100
AcDbVertex
100
AcDb2dVertex
 10
4708.235110185838
 20
1503.308170142843
 30
0.0
 40
34.16729376511025
 41
34.16729376511025
  0
SEQEND
  5
200
330
6F
100
AcDbEntity
  8
0
  0
POLYLINE
  5
70
330
1F
100
AcDbEntity
  8
0
100
AcDb2dPolyline
 66
     1
 10
0.0
 20
0.0
 30
0.0
  0
VERTEX
  5
179
330
70
100
AcDbEntity
  8
0
100
AcDbVertex
100
AcDb2dVertex
 10
160.2732377604631
 20
419.7581701428425
 30
0.0
 40
34.16729376511025
 41
34.16729376511025
  0
VERTEX
  5
17A
330
70
100
AcDbEntity
  8
0
100
AcDbVertex
100
AcDb2dVertex
 10
160.2732377604631
 20
148.8706701428426
 30
0.0
 40
34.16729376511025
 41
34.16729376511025
  0
SEQEND
  5
201
330
70
100
AcDbEntity
  8
0
  0
POLYLINE
  5
71
330
1F
100
AcDbEntity
  8
0
100
AcDb2dPolyline
 66
     1
 10
0.0
 20
0.0
 30
0.0
  0
VERTEX
  5
17B
330
71
100
AcDbEntity
  8
0
100
AcDbVertex
100
AcDb2dVertex
 10
4999.173237760463
 20
419.7581701428425
 30
0.0
 40
34.16729376511025
 41
34.16729376511025
  0
VERTEX
  5
17C
330
71
100
AcDbEntity
  8
0
100
AcDbVertex
100
AcDb2dVertex
 10
4999.173237760463
 20
690.6456701428425
 30
0.0
 40
34.16729376511025
 41
34.16729376511025
  0
SEQEND
  5
202
330
71
100
AcDbEntity
  8
0
  0
LINE
  5
72
330
1F
100
AcDbEntity
  8
0
100
AcDbLine
 10
160.2732377604631
 20
419.7581701428425
 30
0.0
 11
509.7563281573285
 21
419.7581701428425
 31
0.0
  0
POLYLINE
  5
73
330
1F
100
AcDbEntity
  8
0
100
AcDb2dPolyline
 66
     1
 10
0.0
 20
0.0
 30
0.0
  0
VERTEX
  5
17D
330
73
100
AcDbEntity
  8
0
100
AcDbVertex
100
AcDb2dVertex
 10
160.2732377604631
 20
961.5331701428426
 30
0.0
 40
34.16729376511025
 41
34.16729376511025
  0
VERTEX
  5
17E
330
73
100
AcDbEntity
  8
0
100
AcDbVertex
100
AcDb2dVertex
 10
160.2732377604631
 20
690.6456701428425
 30
0.0
 40
34.16729376511025
 41
34.16729376511025
  0
SEQEND
  5
203
330
73
100
AcDbEntity
  8
0
  0
POLYLINE
  5
74
330
1F
100
AcDbEntity
  8
0
100
AcDb2dPolyline
 66
     1
 10
0.0
 20
0.0
 30
0.0
  0
VERTEX
  5
17F
330
74
100
AcDbEntity
  8
0
100
AcDbVertex
100
AcDb2dVertex
 10
4999.173237760463
 20
961.5331701428426
 30
0.0
 40
34.16729376511025
 41
34.16729376511025
  0
VERTEX
  5
180
330
74
100
AcDbEntity
  8
0
100
AcDbVertex
100
AcDb2dVertex
 10
4999.173237760463
 20
1232.420670142843
 30
0.0
 40
34.16729376511025
 41
34.16729376511025
  0
SEQEND
  5
204
330
74
100
AcDbEntity
  8
0
  0
LINE
  5
75
330
1F
100
AcDbEntity
  8
0
100
AcDbLine
 10
160.2732377604631
 20
961.5331701428426
 30
0.0
 11
509.7563281573285
 21
961.5331701428426
 31
0.0
  0
POLYLINE
  5
76
330
1F
100
AcDbEntity
  8
0
100
AcDb2dPolyline
 66
     1
 10
0.0
 20
0.0
 30
0.0
  0
VERTEX
  5
181
330
76
100
AcDbEntity
  8
0
100
AcDbVertex
100
AcDb2dVertex
 10
160.2732377604631
 20
-122.0168298571574
 30
0.0
 40
34.16729376511025
 41
34.16729376511025
  0
VERTEX
  5
182
330
76
100
AcDbEntity
  8
0
100
AcDbVertex
100
AcDb2dVertex
 10
160.2732377604631
 20
-392.9043298571574
 30
0.0
 40
34.16729376511025
 41
34.16729376511025
  0
SEQEND
  5
205
330
76
100
AcDbEntity
  8
0
  0
POLYLINE
  5
77
330
1F
100
AcDbEntity
  8
0
100
AcDb2dPolyline
 66
     1
 10
0.0
 20
0.0
 30
0.0
  0
VERTEX
  5
183
330
77
100
AcDbEntity
  8
0
100
AcDbVertex
100
AcDb2dVertex
 10
4999.173237760463
 20
-122.0168298571574
 30
0.0
 40
34.16729376511025
 41
34.16729376511025
  0
VERTEX
  5
184
330
77
100
AcDbEntity
  8
0
100
AcDbVertex
100
AcDb2dVertex
 10
4999.173237760463
 20
148.8706701428426
 30
0.0
 40
34.16729376511025
 41
34.16729376511025
  0
SEQEND
  5
206
330
77
100
AcDbEntity
  8
0
  0
LINE
  5
78
330
1F
100
AcDbEntity
  8
0
100
AcDbLine
 10
160.2732377604631
 20
-122.0168298571574
 30
0.0
 11
509.7563281573285
 21
-122.0168298571575
 31
0.0
  0
POLYLINE
  5
79
330
1F
100
AcDbEntity
  8
0
100
AcDb2dPolyline
 66
     1
 10
0.0
 20
0.0
 30
0.0
  0
VERTEX
  5
185
330
79
100
AcDbEntity
  8
0
100
AcDbVertex
100
AcDb2dVertex
 10
160.2732377604631
 20
1232.420670142843
 30
0.0
 40
34.16729376511025
 41
34.16729376511025
  0
VERTEX
  5
186
330
79
100
AcDbEntity
  8
0
100
AcDbVertex
100
AcDb2dVertex
 10
160.2732377604631
 20
961.5331701428426
 30
0.0
 40
34.16729376511025
 41
34.16729376511025
  0
SEQEND
  5
207
330
79
100
AcDbEntity
  8
0
  0
POLYLINE
  5
7A
330
1F
100
AcDbEntity
  8
0
100
AcDb2dPolyline
 66
     1
 10
0.0
 20
0.0
 30
0.0
  0
VERTEX
  5
187
330
7A
100
AcDbEntity
  8
0
100
AcDbVertex
100
AcDb2dVertex
 10
4999.173237760463
 20
1232.420670142843
 30
0.0
 40
34.16729376511025
 41
34.16729376511025
  0
VERTEX
  5
188
330
7A
100
AcDbEntity
  8
0
100
AcDbVertex
100
AcDb2dVertex
 10
4999.173237760463
 20
1503.308170142843
 30
0.0
 40
34.16729376511025
 41
34.16729376511025
  0
SEQEND
  5
208
330
7A
100
AcDbEntity
  8
0
  0
LINE
  5
7B
330
1F
100
AcDbEntity
  8
0
100
AcDbLine
 10
160.2732377604631
 20
1232.420670142843
 30
0.0
 11
509.7563281573285
 21
1232.420670142843
 31
0.0
  0
POLYLINE
  5
7C
330
1F
100
AcDbEntity
  8
0
100
AcDb2dPolyline
 66
     1
 10
0.0
 20
0.0
 30
0.0
  0
VERTEX
  5
189
330
7C
100
AcDbEntity
  8
0
100
AcDbVertex
100
AcDb2dVertex
 10
4999.173237760463
 20
690.6456701428425
 30
0.0
 40
34.16729376511025
 41
34.16729376511025
  0
VERTEX
  5
18A
330
7C
100
AcDbEntity
  8
0
100
AcDbVertex
100
AcDb2dVertex
 10
4999.173237760463
 20
961.5331701428426
 30
0.0
 40
34.16729376511025
 41
34.16729376511025
  0
SEQEND
  5
209
330
7C
100
AcDbEntity
  8
0
  0
POLYLINE
  5
7D
330
1F
100
AcDbEntity
  8
0
100
AcDb2dPolyline
 66
     1
 10
0.0
 20
0.0
 30
0.0
  0
VERTEX
  5
18B
330
7D
100
AcDbEntity
  8
0
100
AcDbVertex
100
AcDb2dVertex
 10
160.2732377604631
 20
690.6456701428425
 30
0.0
 40
34.16729376511025
 41
34.16729376511025
  0
VERTEX
  5
18C
330
7D
100
AcDbEntity
  8
0
100
AcDbVertex
100
AcDb2dVertex
 10
160.2732377604631
 20
419.7581701428425
 30
0.0
 40
34.16729376511025
 41
34.16729376511025
  0
SEQEND
  5
20A
330
7D
100
AcDbEntity
  8
0
  0
LINE
  5
7E
330
1F
100
AcDbEntity
  8
0
100
AcDbLine
 10
4999.173237760463
 20
690.6456701428425
 30
0.0
 11
4708.235110185838
 21
690.6456701428425
 31
0.0
  0
POLYLINE
  5
7F
330
1F
100
AcDbEntity
  8
0
100
AcDb2dPolyline
 66
     1
 10
0.0
 20
0.0
 30
0.0
  0
VERTEX
  5
18D
330
7F
100
AcDbEntity
  8
0
100
AcDbVertex
100
AcDb2dVertex
 10
160.2732377604631
 20
148.8706701428426
 30
0.0
 40
34.16729376511025
 41
34.16729376511025
  0
VERTEX
  5
18E
330
7F
100
AcDbEntity
  8
0
100
AcDbVertex
100
AcDb2dVertex
 10
160.2732377604631
 20
-122.0168298571574
 30
0.0
 40
34.16729376511025
 41
34.16729376511025
  0
SEQEND
  5
20B
330
7F
100
AcDbEntity
  8
0
  0
POLYLINE
  5
80
330
1F
100
AcDbEntity
  8
0
100
AcDb2dPolyline
 66
     1
 10
0.0
 20
0.0
 30
0.0
  0
VERTEX
  5
18F
330
80
100
AcDbEntity
  8
0
100
AcDbVertex
100
AcDb2dVertex
 10
4999.173237760463
 20
148.8706701428426
 30
0.0
 40
34.16729376511025
 41
34.16729376511025
  0
VERTEX
  5
190
330
80
100
AcDbEntity
  8
0
100
AcDbVertex
100
AcDb2dVertex
 10
4999.173237760463
 20
419.7581701428425
 30
0.0
 40
34.16729376511025
 41
34.16729376511025
  0
SEQEND
  5
20C
330
80
100
AcDbEntity
  8
0
  0
LINE
  5
81
330
1F
100
AcDbEntity
  8
0
100
AcDbLine
 10
160.2732377604631
 20
148.8706701428426
 30
0.0
 11
509.7563281573285
 21
148.8706701428427
 31
0.0
  0
POLYLINE
  5
82
330
1F
100
AcDbEntity
  8
0
100
AcDb2dPolyline
 66
     1
 10
0.0
 20
0.0
 30
0.0
  0
VERTEX
  5
191
330
82
100
AcDbEntity
  8
0
100
AcDbVertex
100
AcDb2dVertex
 10
160.2732377604631
 20
-392.9043298571574
 30
0.0
 40
34.16729376511025
 41
34.16729376511025
  0
VERTEX
  5
192
330
82
100
AcDbEntity
  8
0
100
AcDbVertex
100
AcDb2dVertex
 10
160.2732377604631
 20
-663.7918298571574
 30
0.0
 40
34.16729376511025
 41
34.16729376511025
  0
SEQEND
  5
20D
330
82
100
AcDbEntity
  8
0
  0
POLYLINE
  5
83
330
1F
100
AcDbEntity
  8
0
100
AcDb2dPolyline
 66
     1
 10
0.0
 20
0.0
 30
0.0
  0
VERTEX
  5
193
330
83
100
AcDbEntity
  8
0
100
AcDbVertex
100
AcDb2dVertex
 10
4999.173237760463
 20
-392.9043298571574
 30
0.0
 40
34.16729376511025
 41
34.16729376511025
  0
VERTEX
  5
194
330
83
100
AcDbEntity
  8
0
100
AcDbVertex
100
AcDb2dVertex
 10
4999.173237760463
 20
-122.0168298571574
 30
0.0
 40
34.16729376511025
 41
34.16729376511025
  0
SEQEND
  5
20E
330
83
100
AcDbEntity
  8
0
  0
LINE
  5
84
330
1F
100
AcDbEntity
  8
0
100
AcDbLine
 10
160.2732377604631
 20
-392.9043298571574
 30
0.0
 11
509.7563281573285
 21
-392.9043298571574
 31
0.0
  0
POLYLINE
  5
85
330
1F
100
AcDbEntity
  8
0
100
AcDb2dPolyline
 66
     1
 10
0.0
 20
0.0
 30
0.0
  0
VERTEX
  5
195
330
85
100
AcDbEntity
  8
0
100
AcDbVertex
100
AcDb2dVertex
 10
509.7563281573285
 20
1503.308170142843
 30
0.0
 40
34.16729376511025
 41
34.16729376511025
  0
VERTEX
  5
196
330
85
100
AcDbEntity
  8
0
100
AcDbVertex
100
AcDb2dVertex
 10
160.2732377604631
 20
1503.308170142843
 30
0.0
 40
34.16729376511025
 41
34.16729376511025
  0
SEQEND
  5
20F
330
85
100
AcDbEntity
  8
0
  0
POLYLINE
  5
86
330
1F
100
AcDbEntity
  8
0
100
AcDb2dPolyline
 66
     1
 10
0.0
 20
0.0
 30
0.0
  0
VERTEX
  5
197
330
86
100
AcDbEntity
  8
0
100
AcDbVertex
100
AcDb2dVertex
 10
509.7563281573285
 20
-663.7918298571574
 30
0.0
 40
34.16729376511025
 41
34.16729376511025
  0
VERTEX
  5
198
330
86
100
AcDbEntity
  8
0
100
AcDbVertex
100
AcDb2dVertex
 10
828.4527373542136
 20
-663.7918298571574
 30
0.0
 40
34.16729376511025
 41
34.16729376511025
  0
SEQEND
  5
210
330
86
100
AcDbEntity
  8
0
  0
LINE
  5
87
330
1F
100
AcDbEntity
  8
0
100
AcDbLine
 10
509.7563281573285
 20
1503.308170142843
 30
0.0
 11
509.7563281573285
 21
1232.420670142843
 31
0.0
  0
LINE
  5
88
330
1F
100
AcDbEntity
  8
0
100
AcDbLine
 10
509.7563281573285
 20
419.7581701428425
 30
0.0
 11
828.4527373542136
 21
419.7581701428425
 31
0.0
  0
LINE
  5
89
330
1F
100
AcDbEntity
  8
0
100
AcDbLine
 10
509.7563281573285
 20
961.5331701428426
 30
0.0
 11
828.4527373542136
 21
961.5331701428426
 31
0.0
  0
LINE
  5
8A
330
1F
100
AcDbEntity
  8
0
100
AcDbLine
 10
509.7563281573285
 20
-122.0168298571575
 30
0.0
 11
828.4527373542136
 21
-122.0168298571576
 31
0.0
  0
LINE
  5
8B
330
1F
100
AcDbEntity
  8
0
100
AcDbLine
 10
509.7563281573285
 20
1232.420670142843
 30
0.0
 11
828.4527373542136
 21
1232.420670142843
 31
0.0
  0
LINE
  5
8C
330
1F
100
AcDbEntity
  8
0
100
AcDbLine
 10
509.7563281573285
 20
690.6456701428425
 30
0.0
 11
160.2732377604631
 21
690.6456701428425
 31
0.0
  0
LINE
  5
8D
330
1F
100
AcDbEntity
  8
0
100
AcDbLine
 10
509.7563281573285
 20
148.8706701428427
 30
0.0
 11
828.4527373542136
 21
148.8706701428426
 31
0.0
  0
LINE
  5
8E
330
1F
100
AcDbEntity
  8
0
100
AcDbLine
 10
509.7563281573285
 20
-392.9043298571574
 30
0.0
 11
828.4527373542136
 21
-392.9043298571573
 31
0.0
  0
LINE
  5
8F
330
1F
100
AcDbEntity
  8
0
100
AcDbLine
 10
509.7563281573285
 20
961.5331701428426
 30
0.0
 11
509.7563281573285
 21
690.6456701428425
 31
0.0
  0
LINE
  5
90
330
1F
100
AcDbEntity
  8
0
100
AcDbLine
 10
509.7563281573285
 20
1232.420670142843
 30
0.0
 11
509.7563281573285
 21
961.5331701428426
 31
0.0
  0
LINE
  5
91
330
1F
100
AcDbEntity
  8
0
100
AcDbLine
 10
509.7563281573285
 20
419.7581701428425
 30
0.0
 11
509.7563281573285
 21
148.8706701428427
 31
0.0
  0
LINE
  5
92
330
1F
100
AcDbEntity
  8
0
100
AcDbLine
 10
509.7563281573285
 20
690.6456701428425
 30
0.0
 11
509.7563281573285
 21
419.7581701428425
 31
0.0
  0
LINE
  5
93
330
1F
100
AcDbEntity
  8
0
100
AcDbLine
 10
509.7563281573285
 20
-122.0168298571575
 30
0.0
 11
509.7563281573285
 21
-392.9043298571574
 31
0.0
  0
LINE
  5
94
330
1F
100
AcDbEntity
  8
0
100
AcDbLine
 10
509.7563281573285
 20
148.8706701428427
 30
0.0
 11
509.7563281573285
 21
-122.0168298571575
 31
0.0
  0
LINE
  5
95
330
1F
100
AcDbEntity
  8
0
100
AcDbLine
 10
509.7563281573285
 20
-392.9043298571574
 30
0.0
 11
509.7563281573285
 21
-663.7918298571574
 31
0.0
  0
POLYLINE
  5
96
330
1F
100
AcDbEntity
  8
0
100
AcDb2dPolyline
 66
     1
 10
0.0
 20
0.0
 30
0.0
  0
VERTEX
  5
199
330
96
100
AcDbEntity
  8
0
100
AcDbVertex
100
AcDb2dVertex
 10
828.4527373542136
 20
1503.308170142843
 30
0.0
 40
34.16729376511025
 41
34.16729376511025
  0
VERTEX
  5
19A
330
96
100
AcDbEntity
  8
0
100
AcDbVertex
100
AcDb2dVertex
 10
509.7563281573285
 20
1503.308170142843
 30
0.0
 40
34.16729376511025
 41
34.16729376511025
  0
SEQEND
  5
211
330
96
100
AcDbEntity
  8
0
  0
POLYLINE
  5
97
330
1F
100
AcDbEntity
  8
0
100
AcDb2dPolyline
 66
     1
 10
0.0
 20
0.0
 30
0.0
  0
VERTEX
  5
19B
330
97
100
AcDbEntity
  8
0
100
AcDbVertex
100
AcDb2dVertex
 10
828.4527373542136
 20
-663.7918298571574
 30
0.0
 40
34.16729376511025
 41
34.16729376511025
  0
VERTEX
  5
19C
330
97
100
AcDbEntity
  8
0
100
AcDbVertex
100
AcDb2dVertex
 10
4417.251432223466
 20
-663.7918298571574
 30
0.0
 40
34.16729376511025
 41
34.16729376511025
  0
SEQEND
  5
212
330
97
100
AcDbEntity
  8
0
  0
LINE
  5
98
330
1F
100
AcDbEntity
  8
0
100
AcDbLine
 10
828.4527373542136
 20
1503.308170142843
 30
0.0
 11
828.4527373542136
 21
1232.420670142843
 31
0.0
  0
LINE
  5
99
330
1F
100
AcDbEntity
  8
0
100
AcDbLine
 10
828.4527373542132
 20
690.6456701428425
 30
0.0
 11
509.7563281573285
 21
690.6456701428425
 31
0.0
  0
LINE
  5
9A
330
1F
100
AcDbEntity
  8
0
100
AcDbLine
 10
828.4527373542136
 20
419.7581701428425
 30
0.0
 11
4417.251432223466
 21
419.7581701428425
 31
0.0
  0
LINE
  5
9B
330
1F
100
AcDbEntity
  8
0
100
AcDbLine
 10
828.4527373542136
 20
961.5331701428426
 30
0.0
 11
4417.251432223466
 21
961.5331701428426
 31
0.0
  0
LINE
  5
9C
330
1F
100
AcDbEntity
  8
0
100
AcDbLine
 10
828.4527373542136
 20
-122.0168298571576
 30
0.0
 11
4417.251432223466
 21
-122.0168298571573
 31
0.0
  0
LINE
  5
9D
330
1F
100
AcDbEntity
  8
0
100
AcDbLine
 10
828.4527373542136
 20
1232.420670142843
 30
0.0
 11
4417.251432223466
 21
1232.420670142843
 31
0.0
  0
LINE
  5
9E
330
1F
100
AcDbEntity
  8
0
100
AcDbLine
 10
828.4527373542136
 20
148.8706701428426
 30
0.0
 11
4417.251432223466
 21
148.8706701428426
 31
0.0
  0
LINE
  5
9F
330
1F
100
AcDbEntity
  8
0
100
AcDbLine
 10
828.4527373542136
 20
-392.9043298571573
 30
0.0
 11
4417.251432223466
 21
-392.9043298571573
 31
0.0
  0
LINE
  5
A0
330
1F
100
AcDbEntity
  8
0
100
AcDbLine
 10
828.4527373542136
 20
-122.0168298571576
 30
0.0
 11
828.4527373542136
 21
-392.9043298571573
 31
0.0
  0
LINE
  5
A1
330
1F
100
AcDbEntity
  8
0
100
AcDbLine
 10
828.4527373542136
 20
419.7581701428425
 30
0.0
 11
828.4527373542136
 21
148.8706701428426
 31
0.0
  0
LINE
  5
A2
330
1F
100
AcDbEntity
  8
0
100
AcDbLine
 10
828.4527373542132
 20
690.6456701428425
 30
0.0
 11
828.4527373542136
 21
419.7581701428425
 31
0.0
  0
LINE
  5
A3
330
1F
100
AcDbEntity
  8
0
100
AcDbLine
 10
828.4527373542136
 20
961.5331701428426
 30
0.0
 11
828.4527373542132
 21
690.6456701428425
 31
0.0
  0
LINE
  5
A4
330
1F
100
AcDbEntity
  8
0
100
AcDbLine
 10
828.4527373542136
 20
1232.420670142843
 30
0.0
 11
828.4527373542136
 21
961.5331701428426
 31
0.0
  0
LINE
  5
A5
330
1F
100
AcDbEntity
  8
0
100
AcDbLine
 10
828.4527373542136
 20
-392.9043298571573
 30
0.0
 11
828.4527373542136
 21
-663.7918298571574
 31
0.0
  0
LINE
  5
A6
330
1F
100
AcDbEntity
  8
0
100
AcDbLine
 10
828.4527373542136
 20
148.8706701428426
 30
0.0
 11
828.4527373542136
 21
-122.0168298571576
 31
0.0
  0
POLYLINE
  5
A7
330
1F
100
AcDbEntity
  8
0
100
AcDb2dPolyline
 66
     1
 10
0.0
 20
0.0
 30
0.0
  0
VERTEX
  5
19D
330
A7
100
AcDbEntity
  8
0
100
AcDbVertex
100
AcDb2dVertex
 10
4708.235110185838
 20
1503.308170142843
 30
0.0
 40
34.16729376511025
 41
34.16729376511025
  0
VERTEX
  5
19E
330
A7
100
AcDbEntity
  8
0
100
AcDbVertex
100
AcDb2dVertex
 10
4417.251432223466
 20
1503.308170142843
 30
0.0
 40
34.16729376511025
 41
34.16729376511025
  0
SEQEND
  5
213
330
A7
100
AcDbEntity
  8
0
  0
POLYLINE
  5
A8
330
1F
100
AcDbEntity
  8
0
100
AcDb2dPolyline
 66
     1
 10
0.0
 20
0.0
 30
0.0
  0
VERTEX
  5
19F
330
A8
100
AcDbEntity
  8
0
100
AcDbVertex
100
AcDb2dVertex
 10
4708.235110185838
 20
-663.7918298571574
 30
0.0
 40
34.16729376511025
 41
34.16729376511025
  0
VERTEX
  5
1A0
330
A8
100
AcDbEntity
  8
0
100
AcDbVertex
100
AcDb2dVertex
 10
4999.173237760463
 20
-663.7918298571574
 30
0.0
 40
34.16729376511025
 41
34.16729376511025
  0
SEQEND
  5
214
330
A8
100
AcDbEntity
  8
0
  0
LINE
  5
A9
330
1F
100
AcDbEntity
  8
0
100
AcDbLine
 10
4708.235110185838
 20
1503.308170142843
 30
0.0
 11
4708.235110185838
 21
1232.420670142843
 31
0.0
  0
LINE
  5
AA
330
1F
100
AcDbEntity
  8
0
100
AcDbLine
 10
4708.235110185838
 20
690.6456701428425
 30
0.0
 11
4417.251432223466
 21
690.6456701428425
 31
0.0
  0
LINE
  5
AB
330
1F
100
AcDbEntity
  8
0
100
AcDbLine
 10
4708.235110185838
 20
419.7581701428425
 30
0.0
 11
4999.173237760463
 21
419.7581701428425
 31
0.0
  0
LINE
  5
AC
330
1F
100
AcDbEntity
  8
0
100
AcDbLine
 10
4708.235110185838
 20
961.5331701428426
 30
0.0
 11
4999.173237760463
 21
961.5331701428426
 31
0.0
  0
LINE
  5
AD
330
1F
100
AcDbEntity
  8
0
100
AcDbLine
 10
4708.235110185838
 20
-122.0168298571573
 30
0.0
 11
4999.173237760463
 21
-122.0168298571574
 31
0.0
  0
LINE
  5
AE
330
1F
100
AcDbEntity
  8
0
100
AcDbLine
 10
4708.235110185838
 20
1232.420670142843
 30
0.0
 11
4999.173237760463
 21
1232.420670142843
 31
0.0
  0
LINE
  5
AF
330
1F
100
AcDbEntity
  8
0
100
AcDbLine
 10
4708.235110185838
 20
148.8706701428426
 30
0.0
 11
4999.173237760463
 21
148.8706701428426
 31
0.0
  0
LINE
  5
B0
330
1F
100
AcDbEntity
  8
0
100
AcDbLine
 10
4708.235110185838
 20
-392.9043298571574
 30
0.0
 11
4999.173237760463
 21
-392.9043298571574
 31
0.0
  0
LINE
  5
B1
330
1F
100
AcDbEntity
  8
0
100
AcDbLine
 10
4708.235110185838
 20
148.8706701428426
 30
0.0
 11
4708.235110185838
 21
-122.0168298571573
 31
0.0
  0
LINE
  5
B2
330
1F
100
AcDbEntity
  8
0
100
AcDbLine
 10
4708.235110185838
 20
419.7581701428425
 30
0.0
 11
4708.235110185838
 21
148.8706701428426
 31
0.0
  0
LINE
  5
B3
330
1F
100
AcDbEntity
  8
0
100
AcDbLine
 10
4708.235110185838
 20
690.6456701428425
 30
0.0
 11
4708.235110185838
 21
419.7581701428425
 31
0.0
  0
LINE
  5
B4
330
1F
100
AcDbEntity
  8
0
100
AcDbLine
 10
4708.235110185838
 20
961.5331701428426
 30
0.0
 11
4708.235110185838
 21
690.6456701428425
 31
0.0
  0
LINE
  5
B5
330
1F
100
AcDbEntity
  8
0
100
AcDbLine
 10
4708.235110185838
 20
1232.420670142843
 30
0.0
 11
4708.235110185838
 21
961.5331701428426
 31
0.0
  0
LINE
  5
B6
330
1F
100
AcDbEntity
  8
0
100
AcDbLine
 10
4708.235110185838
 20
-392.9043298571574
 30
0.0
 11
4708.235110185838
 21
-663.7918298571574
 31
0.0
  0
LINE
  5
B7
330
1F
100
AcDbEntity
  8
0
100
AcDbLine
 10
4708.235110185838
 20
-122.0168298571573
 30
0.0
 11
4708.235110185838
 21
-392.9043298571574
 31
0.0
  0
POLYLINE
  5
B8
330
1F
100
AcDbEntity
  8
0
100
AcDb2dPolyline
 66
     1
 10
0.0
 20
0.0
 30
0.0
  0
VERTEX
  5
1A1
330
B8
100
AcDbEntity
  8
0
100
AcDbVertex
100
AcDb2dVertex
 10
4417.251432223466
 20
1503.308170142843
 30
0.0
 40
34.16729376511025
 41
34.16729376511025
  0
VERTEX
  5
1A2
330
B8
100
AcDbEntity
  8
0
100
AcDbVertex
100
AcDb2dVertex
 10
828.4527373542136
 20
1503.308170142843
 30
0.0
 40
34.16729376511025
 41
34.16729376511025
  0
SEQEND
  5
215
330
B8
100
AcDbEntity
  8
0
  0
POLYLINE
  5
B9
330
1F
100
AcDbEntity
  8
0
100
AcDb2dPolyline
 66
     1
 10
0.0
 20
0.0
 30
0.0
  0
VERTEX
  5
1A3
330
B9
100
AcDbEntity
  8
0
100
AcDbVertex
100
AcDb2dVertex
 10
4417.251432223466
 20
-663.7918298571574
 30
0.0
 40
34.16729376511025
 41
34.16729376511025
  0
VERTEX
  5
1A4
330
B9
100
AcDbEntity
  8
0
100
AcDbVertex
100
AcDb2dVertex
 10
4708.235110185838
 20
-663.7918298571574
 30
0.0
 40
34.16729376511025
 41
34.16729376511025
  0
SEQEND
  5
216
330
B9
100
AcDbEntity
  8
0
  0
LINE
  5
BA
330
1F
100
AcDbEntity
  8
0
100
AcDbLine
 10
4417.251432223466
 20
1503.308170142843
 30
0.0
 11
4417.251432223466
 21
1232.420670142843
 31
0.0
  0
LINE
  5
BB
330
1F
100
AcDbEntity
  8
0
100
AcDbLine
 10
4417.251432223466
 20
419.7581701428425
 30
0.0
 11
4708.235110185838
 21
419.7581701428425
 31
0.0
  0
LINE
  5
BC
330
1F
100
AcDbEntity
  8
0
100
AcDbLine
 10
4417.251432223466
 20
961.5331701428426
 30
0.0
 11
4708.235110185838
 21
961.5331701428426
 31
0.0
  0
LINE
  5
BD
330
1F
100
AcDbEntity
  8
0
100
AcDbLine
 10
4417.251432223466
 20
-122.0168298571573
 30
0.0
 11
4708.235110185838
 21
-122.0168298571573
 31
0.0
  0
LINE
  5
BE
330
1F
100
AcDbEntity
  8
0
100
AcDbLine
 10
4417.251432223466
 20
1232.420670142843
 30
0.0
 11
4708.235110185838
 21
1232.420670142843
 31
0.0
  0
LINE
  5
BF
330
1F
100
AcDbEntity
  8
0
100
AcDbLine
 10
4417.251432223466
 20
148.8706701428426
 30
0.0
 11
4708.235110185838
 21
148.8706701428426
 31
0.0
  0
LINE
  5
C0
330
1F
100
AcDbEntity
  8
0
100
AcDbLine
 10
4417.251432223466
 20
-392.9043298571573
 30
0.0
 11
4708.235110185838
 21
-392.9043298571574
 31
0.0
  0
LINE
  5
C1
330
1F
100
AcDbEntity
  8
0
100
AcDbLine
 10
4417.251432223466
 20
690.6456701428425
 30
0.0
 11
828.4527373542132
 21
690.6456701428425
 31
0.0
  0
LINE
  5
C2
330
1F
100
AcDbEntity
  8
0
100
AcDbLine
 10
4417.251432223466
 20
148.8706701428426
 30
0.0
 11
4417.251432223466
 21
-122.0168298571573
 31
0.0
  0
LINE
  5
C3
330
1F
100
AcDbEntity
  8
0
100
AcDbLine
 10
4417.251432223466
 20
961.5331701428426
 30
0.0
 11
4417.251432223466
 21
690.6456701428425
 31
0.0
  0
LINE
  5
C4
330
1F
100
AcDbEntity
  8
0
100
AcDbLine
 10
4417.251432223466
 20
1232.420670142843
 30
0.0
 11
4417.251432223466
 21
961.5331701428426
 31
0.0
  0
LINE
  5
C5
330
1F
100
AcDbEntity
  8
0
100
AcDbLine
 10
4417.251432223466
 20
-392.9043298571573
 30
0.0
 11
4417.251432223466
 21
-663.7918298571574
 31
0.0
  0
LINE
  5
C6
330
1F
100
AcDbEntity
  8
0
100
AcDbLine
 10
4417.251432223466
 20
-122.0168298571573
 30
0.0
 11
4417.251432223466
 21
-392.9043298571573
 31
0.0
  0
LINE
  5
C7
330
1F
100
AcDbEntity
  8
0
100
AcDbLine
 10
4417.251432223466
 20
419.7581701428425
 30
0.0
 11
4417.251432223466
 21
148.8706701428426
 31
0.0
  0
LINE
  5
C8
330
1F
100
AcDbEntity
  8
0
100
AcDbLine
 10
4417.251432223466
 20
690.6456701428425
 30
0.0
 11
4417.251432223466
 21
419.7581701428425
 31
0.0
  0
POLYLINE
  5
C9
330
1F
100
AcDbEntity
  8
0
100
AcDb2dPolyline
 66
     1
 10
0.0
 20
0.0
 30
0.0
  0
VERTEX
  5
1A5
330
C9
100
AcDbEntity
  8
0
100
AcDbVertex
100
AcDb2dVertex
 10
6772.560499139863
 20
16.07090876344236
 30
0.0
 40
34.16729376511025
 41
34.16729376511025
  0
VERTEX
  5
1A6
330
C9
100
AcDbEntity
  8
0
100
AcDbVertex
100
AcDb2dVertex
 10
6817.923819960431
 20
75.18953945314179
 30
0.0
 40
34.16729376511025
 41
34.16729376511025
  0
SEQEND
  5
217
330
C9
100
AcDbEntity
  8
0
  0
POLYLINE
  5
CA
330
1F
100
AcDbEntity
  8
0
100
AcDb2dPolyline
 66
     1
 10
0.0
 20
0.0
 30
0.0
  0
VERTEX
  5
1A7
330
CA
100
AcDbEntity
  8
0
100
AcDbVertex
100
AcDb2dVertex
 10
6863.287140780999
 20
134.3081701428419
 30
0.0
 40
34.16729376511025
 41
34.16729376511025
  0
VERTEX
  5
1A8
330
CA
100
AcDbEntity
  8
0
100
AcDbVertex
100
AcDb2dVertex
 10
6891.803716384945
 20
203.1532737183278
 30
0.0
 40
34.16729376511025
 41
34.16729376511025
  0
SEQEND
  5
218
330
CA
100
AcDbEntity
  8
0
  0
POLYLINE
  5
CB
330
1F
100
AcDbEntity
  8
0
100
AcDb2dPolyline
 66
     1
 10
0.0
 20
0.0
 30
0.0
  0
VERTEX
  5
1A9
330
CB
100
AcDbEntity
  8
0
100
AcDbVertex
100
AcDb2dVertex
 10
6920.320291988892
 20
271.998377293813
 30
0.0
 40
34.16729376511025
 41
34.16729376511025
  0
VERTEX
  5
1AA
330
CB
100
AcDbEntity
  8
0
100
AcDbVertex
100
AcDb2dVertex
 10
6930.046764874677
 20
345.8782737183278
 30
0.0
 40
34.16729376511025
 41
34.16729376511025
  0
SEQEND
  5
219
330
CB
100
AcDbEntity
  8
0
  0
POLYLINE
  5
CC
330
1F
100
AcDbEntity
  8
0
100
AcDb2dPolyline
 66
     1
 10
0.0
 20
0.0
 30
0.0
  0
VERTEX
  5
1AB
330
CC
100
AcDbEntity
  8
0
100
AcDbVertex
100
AcDb2dVertex
 10
6939.773237760463
 20
419.758170142842
 30
0.0
 40
34.16729376511025
 41
34.16729376511025
  0
VERTEX
  5
1AC
330
CC
100
AcDbEntity
  8
0
100
AcDbVertex
100
AcDb2dVertex
 10
6930.046764874677
 20
493.6380665673569
 30
0.0
 40
34.16729376511025
 41
34.16729376511025
  0
SEQEND
  5
21A
330
CC
100
AcDbEntity
  8
0
  0
POLYLINE
  5
CD
330
1F
100
AcDbEntity
  8
0
100
AcDb2dPolyline
 66
     1
 10
0.0
 20
0.0
 30
0.0
  0
VERTEX
  5
1AD
330
CD
100
AcDbEntity
  8
0
100
AcDbVertex
100
AcDb2dVertex
 10
6920.320291988892
 20
567.5179629918717
 30
0.0
 40
34.16729376511025
 41
34.16729376511025
  0
VERTEX
  5
1AE
330
CD
100
AcDbEntity
  8
0
100
AcDbVertex
100
AcDb2dVertex
 10
6891.803716384945
 20
636.3630665673569
 30
0.0
 40
34.16729376511025
 41
34.16729376511025
  0
SEQEND
  5
21B
330
CD
100
AcDbEntity
  8
0
  0
POLYLINE
  5
CE
330
1F
100
AcDbEntity
  8
0
100
AcDb2dPolyline
 66
     1
 10
0.0
 20
0.0
 30
0.0
  0
VERTEX
  5
1AF
330
CE
100
AcDbEntity
  8
0
100
AcDbVertex
100
AcDb2dVertex
 10
6863.287140781
 20
705.208170142842
 30
0.0
 40
34.16729376511025
 41
34.16729376511025
  0
VERTEX
  5
1B0
330
CE
100
AcDbEntity
  8
0
100
AcDbVertex
100
AcDb2dVertex
 10
6817.923819960431
 20
764.3268008325422
 30
0.0
 40
34.16729376511025
 41
34.16729376511025
  0
SEQEND
  5
21C
330
CE
100
AcDbEntity
  8
0
  0
POLYLINE
  5
CF
330
1F
100
AcDbEntity
  8
0
100
AcDb2dPolyline
 66
     1
 10
0.0
 20
0.0
 30
0.0
  0
VERTEX
  5
1B1
330
CF
100
AcDbEntity
  8
0
100
AcDbVertex
100
AcDb2dVertex
 10
8986.865384425537
 20
-2198.233976522232
 30
0.0
 40
34.16729376511025
 41
34.16729376511025
  0
VERTEX
  5
1B2
330
CF
100
AcDbEntity
  8
0
100
AcDbVertex
100
AcDb2dVertex
 10
9281.055538578747
 20
-1814.837903189696
 30
0.0
 40
34.16729376511025
 41
34.16729376511025
  0
SEQEND
  5
21D
330
CF
100
AcDbEntity
  8
0
  0
POLYLINE
  5
D0
330
1F
100
AcDbEntity
  8
0
100
AcDb2dPolyline
 66
     1
 10
0.0
 20
0.0
 30
0.0
  0
VERTEX
  5
1B3
330
D0
100
AcDbEntity
  8
0
100
AcDbVertex
100
AcDb2dVertex
 10
9575.24569273196
 20
-1431.441829857159
 30
0.0
 40
34.16729376511025
 41
34.16729376511025
  0
VERTEX
  5
1B4
330
D0
100
AcDbEntity
  8
0
100
AcDbVertex
100
AcDb2dVertex
 10
9760.181354872531
 20
-984.9676461509463
 30
0.0
 40
34.16729376511025
 41
34.16729376511025
  0
SEQEND
  5
21E
330
D0
100
AcDbEntity
  8
0
  0
POLYLINE
  5
D1
330
1F
100
AcDbEntity
  8
0
100
AcDb2dPolyline
 66
     1
 10
0.0
 20
0.0
 30
0.0
  0
VERTEX
  5
1B5
330
D1
100
AcDbEntity
  8
0
100
AcDbVertex
100
AcDb2dVertex
 10
9945.117017013097
 20
-538.4934624447332
 30
0.0
 40
34.16729376511025
 41
34.16729376511025
  0
VERTEX
  5
1B6
330
D1
100
AcDbEntity
  8
0
100
AcDbVertex
100
AcDb2dVertex
 10
10008.19512738678
 20
-59.36764615094523
 30
0.0
 40
34.16729376511025
 41
34.16729376511025
  0
SEQEND
  5
21F
330
D1
100
AcDbEntity
  8
0
  0
POLYLINE
  5
D2
330
1F
100
AcDbEntity
  8
0
100
AcDb2dPolyline
 66
     1
 10
0.0
 20
0.0
 30
0.0
  0
VERTEX
  5
1B7
330
D2
100
AcDbEntity
  8
0
100
AcDbVertex
100
AcDb2dVertex
 10
10071.27323776045
 20
419.758170142842
 30
0.0
 40
34.16729376511025
 41
34.16729376511025
  0
VERTEX
  5
1B8
330
D2
100
AcDbEntity
  8
0
100
AcDbVertex
100
AcDb2dVertex
 10
10008.19512738678
 20
898.883986436627
 30
0.0
 40
34.16729376511025
 41
34.16729376511025
  0
SEQEND
  5
220
330
D2
100
AcDbEntity
  8
0
  0
POLYLINE
  5
D3
330
1F
100
AcDbEntity
  8
0
100
AcDb2dPolyline
 66
     1
 10
0.0
 20
0.0
 30
0.0
  0
VERTEX
  5
1B9
330
D3
100
AcDbEntity
  8
0
100
AcDbVertex
100
AcDb2dVertex
 10
9945.117017013097
 20
1378.009802730413
 30
0.0
 40
34.16729376511025
 41
34.16729376511025
  0
VERTEX
  5
1BA
330
D3
100
AcDbEntity
  8
0
100
AcDbVertex
100
AcDb2dVertex
 10
9760.181354872531
 20
1824.483986436626
 30
0.0
 40
34.16729376511025
 41
34.16729376511025
  0
SEQEND
  5
221
330
D3
100
AcDbEntity
  8
0
  0
POLYLINE
  5
D4
330
1F
100
AcDbEntity
  8
0
100
AcDb2dPolyline
 66
     1
 10
0.0
 20
0.0
 30
0.0
  0
VERTEX
  5
1BB
330
D4
100
AcDbEntity
  8
0
100
AcDbVertex
100
AcDb2dVertex
 10
9575.24569273196
 20
2270.958170142839
 30
0.0
 40
34.16729376511025
 41
34.16729376511025
  0
VERTEX
  5
1BC
330
D4
100
AcDbEntity
  8
0
100
AcDbVertex
100
AcDb2dVertex
 10
9281.055538578747
 20
2654.354243475375
 30
0.0
 40
34.16729376511025
 41
34.16729376511025
  0
SEQEND
  5
222
330
D4
100
AcDbEntity
  8
0
  0
POLYLINE
  5
D5
330
1F
100
AcDbEntity
  8
0
100
AcDb2dPolyline
 66
     1
 10
0.0
 20
0.0
 30
0.0
  0
VERTEX
  5
1BD
330
D5
100
AcDbEntity
  8
0
100
AcDbVertex
100
AcDb2dVertex
 10
6772.560499139863
 20
823.4454315222423
 30
0.0
 40
34.16729376511025
 41
34.16729376511025
  0
VERTEX
  5
1BE
330
D5
100
AcDbEntity
  8
0
100
AcDbVertex
100
AcDb2dVertex
 10
6957.69133512798
 20
1008.576267510359
 30
0.0
 40
34.16729376511025
 41
34.16729376511025
  0
SEQEND
  5
223
330
D5
100
AcDbEntity
  8
0
  0
POLYLINE
  5
D6
330
1F
100
AcDbEntity
  8
0
100
AcDb2dPolyline
 66
     1
 10
0.0
 20
0.0
 30
0.0
  0
VERTEX
  5
1BF
330
D6
100
AcDbEntity
  8
0
100
AcDbVertex
100
AcDb2dVertex
 10
6772.560499139863
 20
16.07090876344236
 30
0.0
 40
34.16729376511025
 41
34.16729376511025
  0
VERTEX
  5
1C0
330
D6
100
AcDbEntity
  8
0
100
AcDbVertex
100
AcDb2dVertex
 10
6957.69133512798
 20
-169.0599272246744
 30
0.0
 40
34.16729376511025
 41
34.16729376511025
  0
SEQEND
  5
224
330
D6
100
AcDbEntity
  8
0
  0
LINE
  5
D7
330
1F
100
AcDbEntity
  8
0
100
AcDbLine
 10
6863.287140781
 20
705.208170142842
 30
0.0
 11
7090.025182693883
 21
836.1154396767738
 31
0.0
  0
LINE
  5
D8
330
1F
100
AcDbEntity
  8
0
100
AcDbLine
 10
6920.320291988892
 20
567.5179629918717
 30
0.0
 11
7173.21371697251
 21
635.2805519873725
 31
0.0
  0
LINE
  5
D9
330
1F
100
AcDbEntity
  8
0
100
AcDbLine
 10
6863.287140780999
 20
134.3081701428419
 30
0.0
 11
7090.025182693883
 21
3.400900608910137
 31
0.0
  0
LINE
  5
DA
330
1F
100
AcDbEntity
  8
0
100
AcDbLine
 10
6920.320291988892
 20
271.998377293813
 30
0.0
 11
7173.21371697251
 21
204.2357882983114
 31
0.0
  0
LINE
  5
DB
330
1F
100
AcDbEntity
  8
0
100
AcDbLine
 10
6939.773237760463
 20
419.758170142842
 30
0.0
 11
7201.587776828327
 21
419.758170142842
 31
0.0
  0
POLYLINE
  5
DC
330
1F
100
AcDbEntity
  8
0
100
AcDb2dPolyline
 66
     1
 10
0.0
 20
0.0
 30
0.0
  0
VERTEX
  5
1C1
330
DC
100
AcDbEntity
  8
0
100
AcDbVertex
100
AcDb2dVertex
 10
9281.055538578747
 20
2654.354243475375
 30
0.0
 40
34.16729376511025
 41
34.16729376511025
  0
VERTEX
  5
1C2
330
DC
100
AcDbEntity
  8
0
100
AcDbVertex
100
AcDb2dVertex
 10
8986.865384425537
 20
3037.75031680791
 30
0.0
 40
34.16729376511025
 41
34.16729376511025
  0
SEQEND
  5
225
330
DC
100
AcDbEntity
  8
0
  0
POLYLINE
  5
DD
330
1F
100
AcDbEntity
  8
0
100
AcDb2dPolyline
 66
     1
 10
0.0
 20
0.0
 30
0.0
  0
VERTEX
  5
1C3
330
DD
100
AcDbEntity
  8
0
100
AcDbVertex
100
AcDb2dVertex
 10
6817.923819960431
 20
764.3268008325422
 30
0.0
 40
34.16729376511025
 41
34.16729376511025
  0
VERTEX
  5
1C4
330
DD
100
AcDbEntity
  8
0
100
AcDbVertex
100
AcDb2dVertex
 10
6772.560499139863
 20
823.4454315222423
 30
0.0
 40
34.16729376511025
 41
34.16729376511025
  0
SEQEND
  5
226
330
DD
100
AcDbEntity
  8
0
  0
LINE
  5
DE
330
1F
100
AcDbEntity
  8
0
100
AcDbLine
 10
6817.923819960431
 20
764.3268008325422
 30
0.0
 11
7035.210708271072
 21
931.0568943672672
 31
0.0
  0
POLYLINE
  5
DF
330
1F
100
AcDbEntity
  8
0
100
AcDb2dPolyline
 66
     1
 10
0.0
 20
0.0
 30
0.0
  0
VERTEX
  5
1C5
330
DF
100
AcDbEntity
  8
0
100
AcDbVertex
100
AcDb2dVertex
 10
9760.181354872531
 20
1824.483986436626
 30
0.0
 40
34.16729376511025
 41
34.16729376511025
  0
VERTEX
  5
1C6
330
DF
100
AcDbEntity
  8
0
100
AcDbVertex
100
AcDb2dVertex
 10
9575.24569273196
 20
2270.958170142839
 30
0.0
 40
34.16729376511025
 41
34.16729376511025
  0
SEQEND
  5
227
330
DF
100
AcDbEntity
  8
0
  0
POLYLINE
  5
E0
330
1F
100
AcDbEntity
  8
0
100
AcDb2dPolyline
 66
     1
 10
0.0
 20
0.0
 30
0.0
  0
VERTEX
  5
1C7
330
E0
100
AcDbEntity
  8
0
100
AcDbVertex
100
AcDb2dVertex
 10
6891.803716384945
 20
636.3630665673569
 30
0.0
 40
34.16729376511025
 41
34.16729376511025
  0
VERTEX
  5
1C8
330
E0
100
AcDbEntity
  8
0
100
AcDbVertex
100
AcDb2dVertex
 10
6863.287140781
 20
705.208170142842
 30
0.0
 40
34.16729376511025
 41
34.16729376511025
  0
SEQEND
  5
228
330
E0
100
AcDbEntity
  8
0
  0
LINE
  5
E1
330
1F
100
AcDbEntity
  8
0
100
AcDbLine
 10
6891.803716384945
 20
636.3630665673569
 30
0.0
 11
7144.839657116693
 21
741.1739849862819
 31
0.0
  0
POLYLINE
  5
E2
330
1F
100
AcDbEntity
  8
0
100
AcDb2dPolyline
 66
     1
 10
0.0
 20
0.0
 30
0.0
  0
VERTEX
  5
1C9
330
E2
100
AcDbEntity
  8
0
100
AcDbVertex
100
AcDb2dVertex
 10
10008.19512738678
 20
898.883986436627
 30
0.0
 40
34.16729376511025
 41
34.16729376511025
  0
VERTEX
  5
1CA
330
E2
100
AcDbEntity
  8
0
100
AcDbVertex
100
AcDb2dVertex
 10
9945.117017013097
 20
1378.009802730413
 30
0.0
 40
34.16729376511025
 41
34.16729376511025
  0
SEQEND
  5
229
330
E2
100
AcDbEntity
  8
0
  0
POLYLINE
  5
E3
330
1F
100
AcDbEntity
  8
0
100
AcDb2dPolyline
 66
     1
 10
0.0
 20
0.0
 30
0.0
  0
VERTEX
  5
1CB
330
E3
100
AcDbEntity
  8
0
100
AcDbVertex
100
AcDb2dVertex
 10
6930.046764874677
 20
493.6380665673569
 30
0.0
 40
34.16729376511025
 41
34.16729376511025
  0
VERTEX
  5
1CC
330
E3
100
AcDbEntity
  8
0
100
AcDbVertex
100
AcDb2dVertex
 10
6920.320291988892
 20
567.5179629918717
 30
0.0
 40
34.16729376511025
 41
34.16729376511025
  0
SEQEND
  5
22A
330
E3
100
AcDbEntity
  8
0
  0
LINE
  5
E4
330
1F
100
AcDbEntity
  8
0
100
AcDbLine
 10
6930.046764874677
 20
493.6380665673569
 30
0.0
 11
7201.587776828327
 21
529.3871189884632
 31
0.0
  0
POLYLINE
  5
E5
330
1F
100
AcDbEntity
  8
0
100
AcDb2dPolyline
 66
     1
 10
0.0
 20
0.0
 30
0.0
  0
VERTEX
  5
1CD
330
E5
100
AcDbEntity
  8
0
100
AcDbVertex
100
AcDb2dVertex
 10
10008.19512738678
 20
-59.36764615094523
 30
0.0
 40
34.16729376511025
 41
34.16729376511025
  0
VERTEX
  5
1CE
330
E5
100
AcDbEntity
  8
0
100
AcDbVertex
100
AcDb2dVertex
 10
10071.27323776045
 20
419.758170142842
 30
0.0
 40
34.16729376511025
 41
34.16729376511025
  0
SEQEND
  5
22B
330
E5
100
AcDbEntity
  8
0
  0
POLYLINE
  5
E6
330
1F
100
AcDbEntity
  8
0
100
AcDb2dPolyline
 66
     1
 10
0.0
 20
0.0
 30
0.0
  0
VERTEX
  5
1CF
330
E6
100
AcDbEntity
  8
0
100
AcDbVertex
100
AcDb2dVertex
 10
6930.046764874677
 20
345.8782737183278
 30
0.0
 40
34.16729376511025
 41
34.16729376511025
  0
VERTEX
  5
1D0
330
E6
100
AcDbEntity
  8
0
100
AcDbVertex
100
AcDb2dVertex
 10
6939.773237760463
 20
419.758170142842
 30
0.0
 40
34.16729376511025
 41
34.16729376511025
  0
SEQEND
  5
22C
330
E6
100
AcDbEntity
  8
0
  0
LINE
  5
E7
330
1F
100
AcDbEntity
  8
0
100
AcDbLine
 10
6930.046764874677
 20
345.8782737183278
 30
0.0
 11
7201.587776828327
 21
310.1292212972208
 31
0.0
  0
POLYLINE
  5
E8
330
1F
100
AcDbEntity
  8
0
100
AcDb2dPolyline
 66
     1
 10
0.0
 20
0.0
 30
0.0
  0
VERTEX
  5
1D1
330
E8
100
AcDbEntity
  8
0
100
AcDbVertex
100
AcDb2dVertex
 10
9760.181354872531
 20
-984.9676461509463
 30
0.0
 40
34.16729376511025
 41
34.16729376511025
  0
VERTEX
  5
1D2
330
E8
100
AcDbEntity
  8
0
100
AcDbVertex
100
AcDb2dVertex
 10
9945.117017013097
 20
-538.4934624447332
 30
0.0
 40
34.16729376511025
 41
34.16729376511025
  0
SEQEND
  5
22D
330
E8
100
AcDbEntity
  8
0
  0
POLYLINE
  5
E9
330
1F
100
AcDbEntity
  8
0
100
AcDb2dPolyline
 66
     1
 10
0.0
 20
0.0
 30
0.0
  0
VERTEX
  5
1D3
330
E9
100
AcDbEntity
  8
0
100
AcDbVertex
100
AcDb2dVertex
 10
6891.803716384945
 20
203.1532737183278
 30
0.0
 40
34.16729376511025
 41
34.16729376511025
  0
VERTEX
  5
1D4
330
E9
100
AcDbEntity
  8
0
100
AcDbVertex
100
AcDb2dVertex
 10
6920.320291988892
 20
271.998377293813
 30
0.0
 40
34.16729376511025
 41
34.16729376511025
  0
SEQEND
  5
22E
330
E9
100
AcDbEntity
  8
0
  0
LINE
  5
EA
330
1F
100
AcDbEntity
  8
0
100
AcDbLine
 10
6891.803716384945
 20
203.1532737183278
 30
0.0
 11
7144.839657116693
 21
98.3423552994035
 31
0.0
  0
POLYLINE
  5
EB
330
1F
100
AcDbEntity
  8
0
100
AcDb2dPolyline
 66
     1
 10
0.0
 20
0.0
 30
0.0
  0
VERTEX
  5
1D5
330
EB
100
AcDbEntity
  8
0
100
AcDbVertex
100
AcDb2dVertex
 10
9281.055538578747
 20
-1814.837903189696
 30
0.0
 40
34.16729376511025
 41
34.16729376511025
  0
VERTEX
  5
1D6
330
EB
100
AcDbEntity
  8
0
100
AcDbVertex
100
AcDb2dVertex
 10
9575.24569273196
 20
-1431.441829857159
 30
0.0
 40
34.16729376511025
 41
34.16729376511025
  0
SEQEND
  5
22F
330
EB
100
AcDbEntity
  8
0
  0
POLYLINE
  5
EC
330
1F
100
AcDbEntity
  8
0
100
AcDb2dPolyline
 66
     1
 10
0.0
 20
0.0
 30
0.0
  0
VERTEX
  5
1D7
330
EC
100
AcDbEntity
  8
0
100
AcDbVertex
100
AcDb2dVertex
 10
6817.923819960431
 20
75.18953945314179
 30
0.0
 40
34.16729376511025
 41
34.16729376511025
  0
VERTEX
  5
1D8
330
EC
100
AcDbEntity
  8
0
100
AcDbVertex
100
AcDb2dVertex
 10
6863.287140780999
 20
134.3081701428419
 30
0.0
 40
34.16729376511025
 41
34.16729376511025
  0
SEQEND
  5
230
330
EC
100
AcDbEntity
  8
0
  0
LINE
  5
ED
330
1F
100
AcDbEntity
  8
0
100
AcDbLine
 10
6817.923819960431
 20
75.18953945314179
 30
0.0
 11
7035.210708271071
 21
-91.54055408158251
 31
0.0
  0
LINE
  5
EE
330
1F
100
AcDbEntity
  8
0
100
AcDbLine
 10
7144.839657116693
 20
741.1739849862819
 30
0.0
 11
7090.025182693883
 21
836.1154396767738
 31
0.0
  0
LINE
  5
EF
330
1F
100
AcDbEntity
  8
0
100
AcDbLine
 10
7035.210708271072
 20
931.0568943672672
 30
0.0
 11
6957.69133512798
 21
1008.576267510359
 31
0.0
  0
LINE
  5
F0
330
1F
100
AcDbEntity
  8
0
100
AcDbLine
 10
7035.210708271071
 20
-91.54055408158251
 30
0.0
 11
7090.025182693883
 21
3.400900608910137
 31
0.0
  0
LINE
  5
F1
330
1F
100
AcDbEntity
  8
0
100
AcDbLine
 10
7144.839657116693
 20
98.3423552994035
 30
0.0
 11
7173.21371697251
 21
204.2357882983114
 31
0.0
  0
LINE
  5
F2
330
1F
100
AcDbEntity
  8
0
100
AcDbLine
 10
7201.587776828327
 20
310.1292212972208
 30
0.0
 11
7201.587776828327
 21
419.758170142842
 31
0.0
  0
LINE
  5
F3
330
1F
100
AcDbEntity
  8
0
100
AcDbLine
 10
7201.587776828327
 20
529.3871189884632
 30
0.0
 11
7173.21371697251
 21
635.2805519873725
 31
0.0
  0
POLYLINE
  5
F4
330
1F
100
AcDbEntity
  8
0
100
AcDb2dPolyline
 66
     1
 10
0.0
 20
0.0
 30
0.0
  0
VERTEX
  5
1D9
330
F4
100
AcDbEntity
  8
0
100
AcDbVertex
100
AcDb2dVertex
 10
6957.69133512798
 20
1008.576267510359
 30
0.0
 40
34.16729376511025
 41
34.16729376511025
  0
VERTEX
  5
1DA
330
F4
100
AcDbEntity
  8
0
100
AcDbVertex
100
AcDb2dVertex
 10
7142.986107469597
 20
1193.871039851974
 30
0.0
 40
34.16729376511025
 41
34.16729376511025
  0
SEQEND
  5
231
330
F4
100
AcDbEntity
  8
0
  0
POLYLINE
  5
F5
330
1F
100
AcDbEntity
  8
0
100
AcDb2dPolyline
 66
     1
 10
0.0
 20
0.0
 30
0.0
  0
VERTEX
  5
1DB
330
F5
100
AcDbEntity
  8
0
100
AcDbVertex
100
AcDb2dVertex
 10
6957.69133512798
 20
-169.0599272246744
 30
0.0
 40
34.16729376511025
 41
34.16729376511025
  0
VERTEX
  5
1DC
330
F5
100
AcDbEntity
  8
0
100
AcDbVertex
100
AcDb2dVertex
 10
7142.986107469597
 20
-354.3546995662911
 30
0.0
 40
34.16729376511025
 41
34.16729376511025
  0
SEQEND
  5
232
330
F5
100
AcDbEntity
  8
0
  0
LINE
  5
F6
330
1F
100
AcDbEntity
  8
0
100
AcDbLine
 10
7090.025182693883
 20
836.1154396767738
 30
0.0
 11
7316.96400481495
 21
967.1386297179487
 31
0.0
  0
LINE
  5
F7
330
1F
100
AcDbEntity
  8
0
100
AcDbLine
 10
7173.21371697251
 20
635.2805519873725
 30
0.0
 11
7426.331083179613
 21
703.1031458528593
 31
0.0
  0
LINE
  5
F8
330
1F
100
AcDbEntity
  8
0
100
AcDbLine
 10
7090.025182693883
 20
3.400900608910137
 30
0.0
 11
7316.964004814948
 21
-127.6222894322641
 31
0.0
  0
LINE
  5
F9
330
1F
100
AcDbEntity
  8
0
100
AcDbLine
 10
7173.21371697251
 20
204.2357882983114
 30
0.0
 11
7426.331083179613
 21
136.4131944328255
 31
0.0
  0
LINE
  5
FA
330
1F
100
AcDbEntity
  8
0
100
AcDbLine
 10
7201.587776828327
 20
419.758170142842
 30
0.0
 11
7463.634156910676
 21
419.758170142842
 31
0.0
  0
LINE
  5
FB
330
1F
100
AcDbEntity
  8
0
100
AcDbLine
 10
7035.210708271072
 20
931.0568943672672
 30
0.0
 11
7234.34490857843
 21
1083.85794049271
 31
0.0
  0
LINE
  5
FC
330
1F
100
AcDbEntity
  8
0
100
AcDbLine
 10
7144.839657116693
 20
741.1739849862819
 30
0.0
 11
7376.736344939846
 21
837.2287381520301
 31
0.0
  0
LINE
  5
FD
330
1F
100
AcDbEntity
  8
0
100
AcDbLine
 10
7201.587776828327
 20
529.3871189884632
 30
0.0
 11
7450.443576119521
 21
562.1496065042563
 31
0.0
  0
LINE
  5
FE
330
1F
100
AcDbEntity
  8
0
100
AcDbLine
 10
7201.587776828327
 20
310.1292212972208
 30
0.0
 11
7450.443576119521
 21
277.3667337814269
 31
0.0
  0
LINE
  5
FF
330
1F
100
AcDbEntity
  8
0
100
AcDbLine
 10
7144.839657116693
 20
98.3423552994035
 30
0.0
 11
7376.736344939844
 21
2.287602133653831
 31
0.0
  0
LINE
  5
100
330
1F
100
AcDbEntity
  8
0
100
AcDbLine
 10
7035.210708271071
 20
-91.54055408158251
 30
0.0
 11
7234.34490857843
 21
-244.3416002070278
 31
0.0
  0
LINE
  5
101
330
1F
100
AcDbEntity
  8
0
100
AcDbLine
 10
7090.025182693883
 20
836.1154396767738
 30
0.0
 11
7035.210708271072
 21
931.0568943672672
 31
0.0
  0
LINE
  5
102
330
1F
100
AcDbEntity
  8
0
100
AcDbLine
 10
6957.69133512798
 20
-169.0599272246744
 30
0.0
 11
7035.210708271071
 21
-91.54055408158251
 31
0.0
  0
LINE
  5
103
330
1F
100
AcDbEntity
  8
0
100
AcDbLine
 10
7090.025182693883
 20
3.400900608910137
 30
0.0
 11
7144.839657116693
 21
98.3423552994035
 31
0.0
  0
LINE
  5
104
330
1F
100
AcDbEntity
  8
0
100
AcDbLine
 10
7173.21371697251
 20
204.2357882983114
 30
0.0
 11
7201.587776828327
 21
310.1292212972208
 31
0.0
  0
LINE
  5
105
330
1F
100
AcDbEntity
  8
0
100
AcDbLine
 10
7201.587776828327
 20
419.758170142842
 30
0.0
 11
7201.587776828327
 21
529.3871189884632
 31
0.0
  0
LINE
  5
106
330
1F
100
AcDbEntity
  8
0
100
AcDbLine
 10
7173.21371697251
 20
635.2805519873725
 30
0.0
 11
7144.839657116693
 21
741.1739849862819
 31
0.0
  0
LINE
  5
107
330
1F
100
AcDbEntity
  8
0
100
AcDbLine
 10
7175.706350691825
 20
-327.182642691408
 30
0.0
 11
7234.34490857843
 21
-244.3416002070278
 31
0.0
  0
LINE
  5
108
330
1F
100
AcDbEntity
  8
0
100
AcDbLine
 10
7341.53668697193
 20
-92.90747583711875
 30
0.0
 11
7376.736344939844
 21
2.287602133653831
 31
0.0
  0
LINE
  5
109
330
1F
100
AcDbEntity
  8
0
100
AcDbLine
 10
7441.081616590626
 20
176.3050075706653
 30
0.0
 11
7450.443576119521
 21
277.3667337814269
 31
0.0
  0
LINE
  5
10A
330
1F
100
AcDbEntity
  8
0
100
AcDbLine
 10
7467.557317100171
 20
462.1084216823692
 30
0.0
 11
7450.443576119521
 21
562.1496065042563
 31
0.0
  0
LINE
  5
10B
330
1F
100
AcDbEntity
  8
0
100
AcDbLine
 10
7419.159513264002
 20
745.0257361387562
 30
0.0
 11
7376.736344939846
 21
837.2287381520301
 31
0.0
  0
LINE
  5
10C
330
1F
100
AcDbEntity
  8
0
100
AcDbLine
 10
7299.186435432403
 20
1005.776603502588
 30
0.0
 11
7234.34490857843
 21
1083.85794049271
 31
0.0
  0
POLYLINE
  5
10D
330
1F
100
AcDbEntity
  8
0
100
AcDb2dPolyline
 66
     1
 10
0.0
 20
0.0
 30
0.0
  0
VERTEX
  5
1DD
330
10D
100
AcDbEntity
  8
0
100
AcDbVertex
100
AcDb2dVertex
 10
7142.986107469597
 20
1193.871039851974
 30
0.0
 40
34.16729376511025
 41
34.16729376511025
  0
VERTEX
  5
1DE
330
10D
100
AcDbEntity
  8
0
100
AcDbVertex
100
AcDb2dVertex
 10
8549.742795298109
 20
2600.627727680487
 30
0.0
 40
34.16729376511025
 41
34.16729376511025
  0
SEQEND
  5
233
330
10D
100
AcDbEntity
  8
0
  0
POLYLINE
  5
10E
330
1F
100
AcDbEntity
  8
0
100
AcDb2dPolyline
 66
     1
 10
0.0
 20
0.0
 30
0.0
  0
VERTEX
  5
1DF
330
10E
100
AcDbEntity
  8
0
100
AcDbVertex
100
AcDb2dVertex
 10
7142.986107469597
 20
-354.3546995662911
 30
0.0
 40
34.16729376511025
 41
34.16729376511025
  0
VERTEX
  5
1E0
330
10E
100
AcDbEntity
  8
0
100
AcDbVertex
100
AcDb2dVertex
 10
8549.742795298109
 20
-1761.111387394805
 30
0.0
 40
34.16729376511025
 41
34.16729376511025
  0
SEQEND
  5
234
330
10E
100
AcDbEntity
  8
0
  0
LINE
  5
10F
330
1F
100
AcDbEntity
  8
0
100
AcDbLine
 10
7316.96400481495
 20
967.1386297179487
 30
0.0
 11
9039.882043528742
 21
1961.865823161015
 31
0.0
  0
LINE
  5
110
330
1F
100
AcDbEntity
  8
0
100
AcDbLine
 10
7426.331083179613
 20
703.1031458528593
 30
0.0
 11
9347.996455697017
 21
1218.011830541747
 31
0.0
  0
LINE
  5
111
330
1F
100
AcDbEntity
  8
0
100
AcDbLine
 10
7316.964004814948
 20
-127.6222894322641
 30
0.0
 11
9039.882043528736
 21
-1122.349482875334
 31
0.0
  0
LINE
  5
112
330
1F
100
AcDbEntity
  8
0
100
AcDbLine
 10
7426.331083179613
 20
136.4131944328255
 30
0.0
 11
9347.996455697017
 21
-378.4954902560669
 31
0.0
  0
LINE
  5
113
330
1F
100
AcDbEntity
  8
0
100
AcDbLine
 10
7463.634156910676
 20
419.758170142842
 30
0.0
 11
9453.088543796808
 21
419.758170142842
 31
0.0
  0
LINE
  5
114
330
1F
100
AcDbEntity
  8
0
100
AcDbLine
 10
7234.34490857843
 20
1083.85794049271
 30
0.0
 11
8832.924381238025
 21
2310.491112293586
 31
0.0
  0
LINE
  5
115
330
1F
100
AcDbEntity
  8
0
100
AcDbLine
 10
7376.736344939846
 20
837.2287381520301
 30
0.0
 11
9238.321569173882
 21
1608.322585543126
 31
0.0
  0
LINE
  5
116
330
1F
100
AcDbEntity
  8
0
100
AcDbLine
 10
7450.443576119521
 20
562.1496065042563
 30
0.0
 11
9448.170595311492
 21
825.1553580787038
 31
0.0
  0
LINE
  5
117
330
1F
100
AcDbEntity
  8
0
100
AcDbLine
 10
7450.443576119521
 20
277.3667337814269
 30
0.0
 11
9448.170595311492
 21
14.36098220697877
 31
0.0
  0
LINE
  5
118
330
1F
100
AcDbEntity
  8
0
100
AcDbLine
 10
7376.736344939844
 20
2.287602133653831
 30
0.0
 11
9238.321569173882
 21
-768.8062452574445
 31
0.0
  0
LINE
  5
119
330
1F
100
AcDbEntity
  8
0
100
AcDbLine
 10
7234.34490857843
 20
-244.3416002070278
 30
0.0
 11
8832.92438123802
 21
-1470.974772007907
 31
0.0
  0
LINE
  5
11A
330
1F
100
AcDbEntity
  8
0
100
AcDbLine
 10
7142.986107469597
 20
-354.3546995662911
 30
0.0
 11
7175.706350691825
 21
-327.182642691408
 31
0.0
  0
LINE
  5
11B
330
1F
100
AcDbEntity
  8
0
100
AcDbLine
 10
7234.34490857843
 20
-244.3416002070278
 30
0.0
 11
7316.964004814948
 21
-127.6222894322641
 31
0.0
  0
LINE
  5
11C
330
1F
100
AcDbEntity
  8
0
100
AcDbLine
 10
7376.736344939844
 20
2.287602133653831
 30
0.0
 11
7426.331083179613
 21
136.4131944328255
 31
0.0
  0
LINE
  5
11D
330
1F
100
AcDbEntity
  8
0
100
AcDbLine
 10
7450.443576119521
 20
277.3667337814269
 30
0.0
 11
7463.634156910676
 21
419.758170142842
 31
0.0
  0
LINE
  5
11E
330
1F
100
AcDbEntity
  8
0
100
AcDbLine
 10
7450.443576119521
 20
562.1496065042563
 30
0.0
 11
7426.331083179613
 21
703.1031458528593
 31
0.0
  0
LINE
  5
11F
330
1F
100
AcDbEntity
  8
0
100
AcDbLine
 10
7376.736344939846
 20
837.2287381520301
 30
0.0
 11
7316.96400481495
 21
967.1386297179487
 31
0.0
  0
LINE
  5
120
330
1F
100
AcDbEntity
  8
0
100
AcDbLine
 10
7234.34490857843
 20
1083.85794049271
 30
0.0
 11
7142.986107469597
 21
1193.871039851974
 31
0.0
  0
LINE
  5
121
330
1F
100
AcDbEntity
  8
0
100
AcDbLine
 10
7316.964004814948
 20
-127.6222894322641
 30
0.0
 11
7341.53668697193
 21
-92.90747583711875
 31
0.0
  0
LINE
  5
122
330
1F
100
AcDbEntity
  8
0
100
AcDbLine
 10
7426.331083179613
 20
136.4131944328255
 30
0.0
 11
7441.081616590626
 21
176.3050075706653
 31
0.0
  0
LINE
  5
123
330
1F
100
AcDbEntity
  8
0
100
AcDbLine
 10
7463.634156910676
 20
419.758170142842
 30
0.0
 11
7467.557317100171
 21
462.1084216823692
 31
0.0
  0
LINE
  5
124
330
1F
100
AcDbEntity
  8
0
100
AcDbLine
 10
7426.331083179613
 20
703.1031458528593
 30
0.0
 11
7419.159513264002
 21
745.0257361387562
 31
0.0
  0
LINE
  5
125
330
1F
100
AcDbEntity
  8
0
100
AcDbLine
 10
7316.96400481495
 20
967.1386297179487
 30
0.0
 11
7299.186435432403
 21
1005.776603502588
 31
0.0
  0
LINE
  5
126
330
1F
100
AcDbEntity
  8
0
100
AcDbLine
 10
9295.352687108316
 20
-1298.449905890049
 30
0.0
 11
9305.073534998697
 21
-1275.457861862316
 31
0.0
  0
LINE
  5
127
330
1F
100
AcDbEntity
  8
0
100
AcDbLine
 10
9640.340291516037
 20
-482.4747688434148
 30
0.0
 11
9643.77913066657
 21
-457.7502191492786
 31
0.0
  0
LINE
  5
128
330
1F
100
AcDbEntity
  8
0
100
AcDbLine
 10
9762.382822565243
 20
394.9860519847023
 30
0.0
 11
9759.30530177077
 21
419.758170142842
 31
0.0
  0
LINE
  5
129
330
1F
100
AcDbEntity
  8
0
100
AcDbLine
 10
9653.163283449747
 20
1274.13505172744
 30
0.0
 11
9643.779130666575
 21
1297.266559434959
 31
0.0
  0
LINE
  5
12A
330
1F
100
AcDbEntity
  8
0
100
AcDbLine
 10
9320.124805266461
 20
2095.059678914738
 30
0.0
 11
9305.073534998704
 21
2114.974202148
 31
0.0
  0
LINE
  5
12B
330
1F
100
AcDbEntity
  8
0
100
AcDbLine
 10
8785.963409931446
 20
2801.815276845875
 30
0.0
 11
8766.27074137446
 21
2817.155673756837
 31
0.0
  0
POLYLINE
  5
12C
330
1F
100
AcDbEntity
  8
0
100
AcDb2dPolyline
 66
     1
 10
0.0
 20
0.0
 30
0.0
  0
VERTEX
  5
1E1
330
12C
100
AcDbEntity
  8
0
100
AcDbVertex
100
AcDb2dVertex
 10
8766.27074137446
 20
2817.155673756837
 30
0.0
 40
34.16729376511025
 41
34.16729376511025
  0
VERTEX
  5
1E2
330
12C
100
AcDbEntity
  8
0
100
AcDbVertex
100
AcDb2dVertex
 10
8986.865384425537
 20
3037.75031680791
 30
0.0
 40
34.16729376511025
 41
34.16729376511025
  0
SEQEND
  5
235
330
12C
100
AcDbEntity
  8
0
  0
POLYLINE
  5
12D
330
1F
100
AcDbEntity
  8
0
100
AcDb2dPolyline
 66
     1
 10
0.0
 20
0.0
 30
0.0
  0
VERTEX
  5
1E3
330
12D
100
AcDbEntity
  8
0
100
AcDbVertex
100
AcDb2dVertex
 10
8766.27074137446
 20
-1977.639333471156
 30
0.0
 40
34.16729376511025
 41
34.16729376511025
  0
VERTEX
  5
1E4
330
12D
100
AcDbEntity
  8
0
100
AcDbVertex
100
AcDb2dVertex
 10
8986.865384425537
 20
-2198.233976522232
 30
0.0
 40
34.16729376511025
 41
34.16729376511025
  0
SEQEND
  5
236
330
12D
100
AcDbEntity
  8
0
  0
LINE
  5
12E
330
1F
100
AcDbEntity
  8
0
100
AcDbLine
 10
9305.073534998704
 20
2114.974202148
 30
0.0
 11
9575.24569273196
 21
2270.958170142839
 31
0.0
  0
LINE
  5
12F
330
1F
100
AcDbEntity
  8
0
100
AcDbLine
 10
9643.779130666575
 20
1297.266559434959
 30
0.0
 11
9945.117017013097
 21
1378.009802730413
 31
0.0
  0
LINE
  5
130
330
1F
100
AcDbEntity
  8
0
100
AcDbLine
 10
9305.073534998697
 20
-1275.457861862316
 30
0.0
 11
9575.24569273196
 21
-1431.441829857159
 31
0.0
  0
LINE
  5
131
330
1F
100
AcDbEntity
  8
0
100
AcDbLine
 10
9643.77913066657
 20
-457.7502191492786
 30
0.0
 11
9945.117017013097
 21
-538.4934624447332
 31
0.0
  0
LINE
  5
132
330
1F
100
AcDbEntity
  8
0
100
AcDbLine
 10
9759.30530177077
 20
419.758170142842
 30
0.0
 11
10071.27323776045
 21
419.758170142842
 31
0.0
  0
LINE
  5
133
330
1F
100
AcDbEntity
  8
0
100
AcDbLine
 10
9038.235048640856
 20
2468.031528311754
 30
0.0
 11
9281.055538578747
 21
2654.354243475375
 31
0.0
  0
LINE
  5
134
330
1F
100
AcDbEntity
  8
0
100
AcDbLine
 10
9477.410905269802
 20
1707.356631172836
 30
0.0
 11
9760.181354872531
 21
1824.483986436626
 31
0.0
  0
LINE
  5
135
330
1F
100
AcDbEntity
  8
0
100
AcDbLine
 10
9704.745056959366
 20
858.9340267717878
 30
0.0
 11
10008.19512738678
 21
898.883986436627
 31
0.0
  0
LINE
  5
136
330
1F
100
AcDbEntity
  8
0
100
AcDbLine
 10
9704.745056959366
 20
-19.41768648610531
 30
0.0
 11
10008.19512738678
 21
-59.36764615094523
 31
0.0
  0
LINE
  5
137
330
1F
100
AcDbEntity
  8
0
100
AcDbLine
 10
9477.410905269797
 20
-867.8402908871535
 30
0.0
 11
9760.181354872531
 21
-984.9676461509463
 31
0.0
  0
LINE
  5
138
330
1F
100
AcDbEntity
  8
0
100
AcDbLine
 10
9038.23504864085
 20
-1628.515188026075
 30
0.0
 11
9281.055538578747
 21
-1814.837903189696
 31
0.0
  0
LINE
  5
139
330
1F
100
AcDbEntity
  8
0
100
AcDbLine
 10
8766.27074137446
 20
-1977.639333471156
 30
0.0
 11
9038.23504864085
 21
-1628.515188026075
 31
0.0
  0
LINE
  5
13A
330
1F
100
AcDbEntity
  8
0
100
AcDbLine
 10
9477.410905269797
 20
-867.8402908871535
 30
0.0
 11
9640.340291516037
 21
-482.4747688434148
 31
0.0
  0
LINE
  5
13B
330
1F
100
AcDbEntity
  8
0
100
AcDbLine
 10
9305.073534998697
 20
-1275.457861862316
 30
0.0
 11
9477.410905269797
 21
-867.8402908871535
 31
0.0
  0
LINE
  5
13C
330
1F
100
AcDbEntity
  8
0
100
AcDbLine
 10
9704.745056959366
 20
-19.41768648610531
 30
0.0
 11
9762.382822565243
 21
394.9860519847023
 31
0.0
  0
LINE
  5
13D
330
1F
100
AcDbEntity
  8
0
100
AcDbLine
 10
9643.77913066657
 20
-457.7502191492786
 30
0.0
 11
9704.745056959366
 21
-19.41768648610531
 31
0.0
  0
LINE
  5
13E
330
1F
100
AcDbEntity
  8
0
100
AcDbLine
 10
9759.30530177077
 20
419.758170142842
 30
0.0
 11
9704.745056959366
 21
858.9340267717878
 31
0.0
  0
LINE
  5
13F
330
1F
100
AcDbEntity
  8
0
100
AcDbLine
 10
9643.779130666575
 20
1297.266559434959
 30
0.0
 11
9477.410905269802
 21
1707.356631172836
 31
0.0
  0
LINE
  5
140
330
1F
100
AcDbEntity
  8
0
100
AcDbLine
 10
9305.073534998704
 20
2114.974202148
 30
0.0
 11
9038.235048640856
 21
2468.031528311754
 31
0.0
  0
LINE
  5
141
330
1F
100
AcDbEntity
  8
0
100
AcDbLine
 10
9038.23504864085
 20
-1628.515188026075
 30
0.0
 11
9295.352687108316
 21
-1298.449905890049
 31
0.0
  0
LINE
  5
142
330
1F
100
AcDbEntity
  8
0
100
AcDbLine
 10
9704.745056959366
 20
858.9340267717878
 30
0.0
 11
9653.163283449747
 21
1274.13505172744
 31
0.0
  0
LINE
  5
143
330
1F
100
AcDbEntity
  8
0
100
AcDbLine
 10
9477.410905269802
 20
1707.356631172836
 30
0.0
 11
9320.124805266461
 21
2095.059678914738
 31
0.0
  0
LINE
  5
144
330
1F
100
AcDbEntity
  8
0
100
AcDbLine
 10
9038.235048640856
 20
2468.031528311754
 30
0.0
 11
8785.963409931446
 21
2801.815276845875
 31
0.0
  0
LINE
  5
145
330
1F
100
AcDbEntity
  8
0
100
AcDbLine
 10
8813.526485973987
 20
-1503.651005253559
 30
0.0
 11
8832.92438123802
 21
-1470.974772007907
 31
0.0
  0
LINE
  5
146
330
1F
100
AcDbEntity
  8
0
100
AcDbLine
 10
9228.041872648886
 20
-805.389607584503
 30
0.0
 11
9238.321569173882
 21
-768.8062452574445
 31
0.0
  0
LINE
  5
147
330
1F
100
AcDbEntity
  8
0
100
AcDbLine
 10
9447.709641855716
 20
-23.6364135157574
 30
0.0
 11
9448.170595311492
 21
14.36098220697877
 31
0.0
  0
LINE
  5
148
330
1F
100
AcDbEntity
  8
0
100
AcDbLine
 10
9457.559798141185
 20
788.3333886851245
 30
0.0
 11
9448.170595311492
 21
825.1553580787038
 31
0.0
  0
LINE
  5
149
330
1F
100
AcDbEntity
  8
0
100
AcDbLine
 10
9256.921069632584
 20
1575.185398841697
 30
0.0
 11
9238.321569173882
 21
1608.322585543126
 31
0.0
  0
LINE
  5
14A
330
1F
100
AcDbEntity
  8
0
100
AcDbLine
 10
8859.46665410661
 20
2283.296952796221
 30
0.0
 11
8832.924381238025
 21
2310.491112293586
 31
0.0
  0
POLYLINE
  5
14B
330
1F
100
AcDbEntity
  8
0
100
AcDb2dPolyline
 66
     1
 10
0.0
 20
0.0
 30
0.0
  0
VERTEX
  5
1E5
330
14B
100
AcDbEntity
  8
0
100
AcDbVertex
100
AcDb2dVertex
 10
8549.742795298109
 20
2600.627727680487
 30
0.0
 40
34.16729376511025
 41
34.16729376511025
  0
VERTEX
  5
1E6
330
14B
100
AcDbEntity
  8
0
100
AcDbVertex
100
AcDb2dVertex
 10
8766.27074137446
 20
2817.155673756837
 30
0.0
 40
34.16729376511025
 41
34.16729376511025
  0
SEQEND
  5
237
330
14B
100
AcDbEntity
  8
0
  0
POLYLINE
  5
14C
330
1F
100
AcDbEntity
  8
0
100
AcDb2dPolyline
 66
     1
 10
0.0
 20
0.0
 30
0.0
  0
VERTEX
  5
1E7
330
14C
100
AcDbEntity
  8
0
100
AcDbVertex
100
AcDb2dVertex
 10
8549.742795298109
 20
-1761.111387394805
 30
0.0
 40
34.16729376511025
 41
34.16729376511025
  0
VERTEX
  5
1E8
330
14C
100
AcDbEntity
  8
0
100
AcDbVertex
100
AcDb2dVertex
 10
8766.27074137446
 20
-1977.639333471156
 30
0.0
 40
34.16729376511025
 41
34.16729376511025
  0
SEQEND
  5
238
330
14C
100
AcDbEntity
  8
0
  0
LINE
  5
14D
330
1F
100
AcDbEntity
  8
0
100
AcDbLine
 10
9039.882043528742
 20
1961.865823161015
 30
0.0
 11
9305.073534998704
 21
2114.974202148
 31
0.0
  0
LINE
  5
14E
330
1F
100
AcDbEntity
  8
0
100
AcDbLine
 10
9347.996455697017
 20
1218.011830541747
 30
0.0
 11
9643.779130666575
 21
1297.266559434959
 31
0.0
  0
LINE
  5
14F
330
1F
100
AcDbEntity
  8
0
100
AcDbLine
 10
9039.882043528736
 20
-1122.349482875334
 30
0.0
 11
9305.073534998697
 21
-1275.457861862316
 31
0.0
  0
LINE
  5
150
330
1F
100
AcDbEntity
  8
0
100
AcDbLine
 10
9347.996455697017
 20
-378.4954902560669
 30
0.0
 11
9643.77913066657
 21
-457.7502191492786
 31
0.0
  0
LINE
  5
151
330
1F
100
AcDbEntity
  8
0
100
AcDbLine
 10
9453.088543796808
 20
419.758170142842
 30
0.0
 11
9759.30530177077
 21
419.758170142842
 31
0.0
  0
LINE
  5
152
330
1F
100
AcDbEntity
  8
0
100
AcDbLine
 10
8832.924381238025
 20
2310.491112293586
 30
0.0
 11
9038.235048640856
 21
2468.031528311754
 31
0.0
  0
LINE
  5
153
330
1F
100
AcDbEntity
  8
0
100
AcDbLine
 10
9238.321569173882
 20
1608.322585543126
 30
0.0
 11
9477.410905269802
 21
1707.356631172836
 31
0.0
  0
LINE
  5
154
330
1F
100
AcDbEntity
  8
0
100
AcDbLine
 10
9448.170595311492
 20
825.1553580787038
 30
0.0
 11
9704.745056959366
 21
858.9340267717878
 31
0.0
  0
LINE
  5
155
330
1F
100
AcDbEntity
  8
0
100
AcDbLine
 10
9448.170595311492
 20
14.36098220697877
 30
0.0
 11
9704.745056959366
 21
-19.41768648610531
 31
0.0
  0
LINE
  5
156
330
1F
100
AcDbEntity
  8
0
100
AcDbLine
 10
9238.321569173882
 20
-768.8062452574445
 30
0.0
 11
9477.410905269797
 21
-867.8402908871535
 31
0.0
  0
LINE
  5
157
330
1F
100
AcDbEntity
  8
0
100
AcDbLine
 10
8832.92438123802
 20
-1470.974772007907
 30
0.0
 11
9038.23504864085
 21
-1628.515188026075
 31
0.0
  0
LINE
  5
158
330
1F
100
AcDbEntity
  8
0
100
AcDbLine
 10
8549.742795298109
 20
-1761.111387394805
 30
0.0
 11
8813.526485973987
 21
-1503.651005253559
 31
0.0
  0
LINE
  5
159
330
1F
100
AcDbEntity
  8
0
100
AcDbLine
 10
8832.92438123802
 20
-1470.974772007907
 30
0.0
 11
9039.882043528736
 21
-1122.349482875334
 31
0.0
  0
LINE
  5
15A
330
1F
100
AcDbEntity
  8
0
100
AcDbLine
 10
9238.321569173882
 20
-768.8062452574445
 30
0.0
 11
9347.996455697017
 21
-378.4954902560669
 31
0.0
  0
LINE
  5
15B
330
1F
100
AcDbEntity
  8
0
100
AcDbLine
 10
9448.170595311492
 20
14.36098220697877
 30
0.0
 11
9453.088543796808
 21
419.758170142842
 31
0.0
  0
LINE
  5
15C
330
1F
100
AcDbEntity
  8
0
100
AcDbLine
 10
9448.170595311492
 20
825.1553580787038
 30
0.0
 11
9347.996455697017
 21
1218.011830541747
 31
0.0
  0
LINE
  5
15D
330
1F
100
AcDbEntity
  8
0
100
AcDbLine
 10
9039.882043528742
 20
1961.865823161015
 30
0.0
 11
8859.46665410661
 21
2283.296952796221
 31
0.0
  0
LINE
  5
15E
330
1F
100
AcDbEntity
  8
0
100
AcDbLine
 10
9238.321569173882
 20
1608.322585543126
 30
0.0
 11
9039.882043528742
 21
1961.865823161015
 31
0.0
  0
LINE
  5
15F
330
1F
100
AcDbEntity
  8
0
100
AcDbLine
 10
8832.924381238025
 20
2310.491112293586
 30
0.0
 11
8549.742795298109
 21
2600.627727680487
 31
0.0
  0
LINE
  5
160
330
1F
100
AcDbEntity
  8
0
100
AcDbLine
 10
9039.882043528736
 20
-1122.349482875334
 30
0.0
 11
9228.041872648886
 21
-805.389607584503
 31
0.0
  0
LINE
  5
161
330
1F
100
AcDbEntity
  8
0
100
AcDbLine
 10
9347.996455697017
 20
-378.4954902560669
 30
0.0
 11
9447.709641855716
 21
-23.6364135157574
 31
0.0
  0
LINE
  5
162
330
1F
100
AcDbEntity
  8
0
100
AcDbLine
 10
9453.088543796808
 20
419.758170142842
 30
0.0
 11
9457.559798141185
 21
788.3333886851245
 31
0.0
  0
LINE
  5
163
330
1F
100
AcDbEntity
  8
0
100
AcDbLine
 10
9347.996455697017
 20
1218.011830541747
 30
0.0
 11
9256.921069632584
 21
1575.185398841697
 31
0.0
  0
POLYLINE
  5
164
330
1F
100
AcDbEntity
  8
0
100
AcDb2dPolyline
 66
     1
 10
0.0
 20
0.0
 30
0.0
  0
VERTEX
  5
1E9
330
164
100
AcDbEntity
  8
0
100
AcDbVertex
100
AcDb2dVertex
 10
135.634456491422
 20
1835.851400685118
 30
0.0
 40
34.16729376511025
 41
34.16729376511025
  0
VERTEX
  5
1EA
330
164
100
AcDbEntity
  8
0
100
AcDbVertex
100
AcDb2dVertex
 10
4943.834456491421
 20
1835.851400685118
 30
0.0
 40
34.16729376511025
 41
34.16729376511025
  0
SEQEND
  5
239
330
164
100
AcDbEntity
  8
0
  0
POLYLINE
  5
165
330
1F
100
AcDbEntity
  8
0
100
AcDb2dPolyline
 66
     1
 10
0.0
 20
0.0
 30
0.0
  0
VERTEX
  5
1EB
330
165
100
AcDbEntity
  8
0
100
AcDbVertex
100
AcDb2dVertex
 10
4943.834456491421
 20
1835.851400685118
 30
0.0
 40
34.16729376511025
 41
34.16729376511025
  0
VERTEX
  5
1EC
330
165
100
AcDbEntity
  8
0
100
AcDbVertex
100
AcDb2dVertex
 10
4799.153777162793
 20
1919.856109059152
 30
0.0
 40
34.16729376511025
 41
34.16729376511025
  0
SEQEND
  5
23A
330
165
100
AcDbEntity
  8
0
  0
POLYLINE
  5
166
330
1F
100
AcDbEntity
  8
0
100
AcDb2dPolyline
 66
     1
 10
0.0
 20
0.0
 30
0.0
  0
VERTEX
  5
1ED
330
166
100
AcDbEntity
  8
0
100
AcDbVertex
100
AcDb2dVertex
 10
4943.834456491421
 20
1835.851400685118
 30
0.0
 40
34.16729376511025
 41
34.16729376511025
  0
VERTEX
  5
1EE
330
166
100
AcDbEntity
  8
0
100
AcDbVertex
100
AcDb2dVertex
 10
4799.153777162793
 20
1765.656678429423
 30
0.0
 40
34.16729376511025
 41
34.16729376511025
  0
SEQEND
  5
23B
330
166
100
AcDbEntity
  8
0
  0
POLYLINE
  5
167
330
1F
100
AcDbEntity
  8
0
100
AcDb2dPolyline
 66
     1
 10
0.0
 20
0.0
 30
0.0
  0
VERTEX
  5
1EF
330
167
100
AcDbEntity
  8
0
100
AcDbVertex
100
AcDb2dVertex
 10
-93.3850062912252
 20
1503.308170142843
 30
0.0
 40
34.16729376511025
 41
34.16729376511025
  0
VERTEX
  5
1F0
330
167
100
AcDbEntity
  8
0
100
AcDbVertex
100
AcDb2dVertex
 10
-93.3850062912252
 20
-673.5918298571573
 30
0.0
 40
34.16729376511025
 41
34.16729376511025
  0
SEQEND
  5
23C
330
167
100
AcDbEntity
  8
0
  0
POLYLINE
  5
168
330
1F
100
AcDbEntity
  8
0
100
AcDb2dPolyline
 66
     1
 10
0.0
 20
0.0
 30
0.0
  0
VERTEX
  5
1F1
330
168
100
AcDbEntity
  8
0
100
AcDbVertex
100
AcDb2dVertex
 10
-93.3850062912252
 20
-673.5918298571573
 30
0.0
 40
34.16729376511025
 41
34.16729376511025
  0
VERTEX
  5
1F2
330
168
100
AcDbEntity
  8
0
100
AcDbVertex
100
AcDb2dVertex
 10
-144.2425443323585
 20
-621.0835369464686
 30
0.0
 40
34.16729376511025
 41
34.16729376511025
  0
SEQEND
  5
23D
330
168
100
AcDbEntity
  8
0
  0
POLYLINE
  5
169
330
1F
100
AcDbEntity
  8
0
100
AcDb2dPolyline
 66
     1
 10
0.0
 20
0.0
 30
0.0
  0
VERTEX
  5
1F3
330
169
100
AcDbEntity
  8
0
100
AcDbVertex
100
AcDb2dVertex
 10
-93.3850062912252
 20
-673.5918298571573
 30
0.0
 40
34.16729376511025
 41
34.16729376511025
  0
VERTEX
  5
1F4
330
169
100
AcDbEntity
  8
0
100
AcDbVertex
100
AcDb2dVertex
 10
-39.17237763105021
 20
-621.0835369464686
 30
0.0
 40
34.16729376511025
 41
34.16729376511025
  0
SEQEND
  5
23E
330
169
100
AcDbEntity
  8
0
  0
ENDSEC
  0
SECTION
  2
OBJECTS
  0
DICTIONARY
  5
C
330
0
100
AcDbDictionary
  3
ACAD_GROUP
350
D
  3
ACAD_LAYOUT
350
1A
  3
ACAD_MATERIAL
350
43
  3
ACAD_MLEADERSTYLE
350
16C
  3
ACAD_MLINESTYLE
350
17
  3
ACAD_PLOTSETTINGS
350
19
  3
ACAD_SCALELIST
350
47
  3
ACAD_VISUALSTYLE
350
2A
  3
ACDBVARIABLEDICTIONARY
350
16A
1001
ACAD
1000
TREAT_AS_HARD
1070
     0
  0
DICTIONARY
  5
D
102
{ACAD_REACTORS
330
C
102
}
330
C
100
AcDbDictionary
1001
ACAD
1000
TREAT_AS_HARD
1070
     0
  0
DICTIONARY
  5
1A
102
{ACAD_REACTORS
330
C
102
}
330
C
100
AcDbDictionary
1001
ACAD
1000
TREAT_AS_HARD
1070
     0
  0
DICTIONARY
  5
43
102
{ACAD_REACTORS
330
C
102
}
330
C
100
AcDbDictionary
  3
BYBLOCK
350
45
  3
BYLAYER
350
44
  3
GLOBAL
350
46
1001
ACAD
1000
TREAT_AS_HARD
1070
     0
  0
DICTIONARY
  5
16C
102
{ACAD_REACTORS
330
C
102
}
330
C
100
AcDbDictionary
1001
ACAD
1000
TREAT_AS_HARD
1070
     0
  0
DICTIONARY
  5
17
102
{ACAD_REACTORS
330
C
102
}
330
C
100
AcDbDictionary
  3
STANDARD
350
18
1001
ACAD
1000
TREAT_AS_HARD
1070
     0
  0
DICTIONARY
  5
19
102
{ACAD_REACTORS
330
C
102
}
330
C
100
AcDbDictionary
1001
ACAD
1000
TREAT_AS_HARD
1070
     0
  0
DICTIONARY
  5
47
102
{ACAD_REACTORS
330
C
102
}
330
C
100
AcDbDictionary
  3
A0
350
48
  3
A1
350
49
  3
A2
350
4A
  3
A3
350
4B
  3
A4
350
4C
  3
A5
350
4D
  3
A6
350
4E
  3
A7
350
4F
  3
A8
350
50
  3
A9
350
51
  3
B0
350
52
  3
B1
350
53
  3
B2
350
54
  3
B3
350
55
  3
B4
350
56
  3
B5
350
57
  3
B6
350
58
  3
B7
350
59
  3
B8
350
5A
  3
B9
350
5B
  3
C0
350
5C
  3
C1
350
5D
  3
C2
350
5E
  3
C3
350
5F
  3
C4
350
60
  3
C5
350
61
  3
C6
350
62
  3
C7
350
63
  3
C8
350
64
  3
C9
350
65
  3
D0
350
66
  3
D1
350
67
  3
D2
350
68
1001
ACAD
1000
TREAT_AS_HARD
1070
     0
  0
DICTIONARY
  5
2A
102
{ACAD_REACTORS
330
C
102
}
330
C
100
AcDbDictionary
  3
2DWIREFRAME
350
2F
  3
BASIC
350
32
  3
BRIGHTEN
350
36
  3
COLORCHANGE
350
3A
  3
CONCEPTUAL
350
34
  3
DIM
350
35
  3
EDGECOLOROFF
350
3D
  3
FACEPATTERN
350
39
  3
FLAT
350
2B
  3
FLATWITHEDGES
350
2C
  3
GOURAUD
350
2D
  3
GOURAUDWITHEDGES
350
2E
  3
HIDDEN
350
31
  3
JITTEROFF
350
3B
  3
LINEPATTERN
350
38
  3
OVERHANGOFF
350
3C
  3
REALISTIC
350
33
  3
SHADED
350
42
  3
SHADED_WITH_EDGES
350
41
  3
SHADES_OF_GRAY
350
3E
  3
SKETCHY
350
3F
  3
THICKEN
350
37
  3
WIREFRAME
350
30
  3
X-RAY
350
40
1001
ACAD
1000
TREAT_AS_HARD
1070
     0
  0
DICTIONARY
  5
16A
102
{ACAD_REACTORS
330
C
102
}
330
C
100
AcDbDictionary
  3
CANNOSCALE
350
1F5
  3
DIMASSOC
350
16F
  3
HIDETEXT
350
170
  3
MSLTSCALE
350
1F6
1001
ACAD
1000
TREAT_AS_HARD
1070
     0
  0
MATERIAL
  5
45
102
{ACAD_REACTORS
330
43
102
}
102
{ACAD_XDICTIONARY
360
1F9
102
}
330
43
100
AcDbMaterial
  1
BYBLOCK
  0
MATERIAL
  5
44
102
{ACAD_REACTORS
330
43
102
}
102
{ACAD_XDICTIONARY
360
1F7
102
}
330
43
100
AcDbMaterial
  1
BYLAYER
  0
MATERIAL
  5
46
102
{ACAD_REACTORS
330
43
102
}
102
{ACAD_XDICTIONARY
360
1FB
102
}
330
43
100
AcDbMaterial
  1
GLOBAL
  0
MLINESTYLE
  5
18
102
{ACAD_REACTORS
330
17
102
}
330
17
100
AcDbMlineStyle
  2
Standard
 70
     0
  3

 62
   256
 51
90.0
 52
90.0
 71
     2
 49
0.5
 62
   256
  6
BYLAYER
 49
-0.5
 62
   256
  6
BYLAYER
  0
ACAD_PROXY_OBJECT
  5
48
102
{ACAD_REACTORS
330
47
102
}
330
47
100
AcDbZombieObject
 90
      499
 91
      503
 93
       41
310
903313A31580
  0
ACAD_PROXY_OBJECT
  5
49
102
{ACAD_REACTORS
330
47
102
}
330
47
100
AcDbZombieObject
 90
      499
 91
      503
 93
      105
310
903313A324000000000000004000
  0
ACAD_PROXY_OBJECT
  5
4A
102
{ACAD_REACTORS
330
47
102
}
330
47
100
AcDbZombieObject
 90
      499
 91
      503
 93
      105
310
903313A344000000000000104000
  0
ACAD_PROXY_OBJECT
  5
4B
102
{ACAD_REACTORS
330
47
102
}
330
47
100
AcDbZombieObject
 90
      499
 91
      503
 93
      105
310
903313A354000000000000144000
  0
ACAD_PROXY_OBJECT
  5
4C
102
{ACAD_REACTORS
330
47
102
}
330
47
100
AcDbZombieObject
 90
      499
 91
      503
 93
      105
310
903313A384000000000000204000
  0
ACAD_PROXY_OBJECT
  5
4D
102
{ACAD_REACTORS
330
47
102
}
330
47
100
AcDbZombieObject
 90
      499
 91
      503
 93
      113
310
904313A31304000000000000244000
  0
ACAD_PROXY_OBJECT
  5
4E
102
{ACAD_REACTORS
330
47
102
}
330
47
100
AcDbZombieObject
 90
      499
 91
      503
 93
      113
310
904313A31364000000000000304000
  0
ACAD_PROXY_OBJECT
  5
4F
102
{ACAD_REACTORS
330
47
102
}
330
47
100
AcDbZombieObject
 90
      499
 91
      503
 93
      113
310
904313A32304000000000000344000
  0
ACAD_PROXY_OBJECT
  5
50
102
{ACAD_REACTORS
330
47
102
}
330
47
100
AcDbZombieObject
 90
      499
 91
      503
 93
      113
310
904313A333040000000000003E4000
  0
ACAD_PROXY_OBJECT
  5
51
102
{ACAD_REACTORS
330
47
102
}
330
47
100
AcDbZombieObject
 90
      499
 91
      503
 93
      113
310
904313A34304000000000000444000
  0
ACAD_PROXY_OBJECT
  5
52
102
{ACAD_REACTORS
330
47
102
}
330
47
100
AcDbZombieObject
 90
      499
 91
      503
 93
      113
310
904313A35304000000000000494000
  0
ACAD_PROXY_OBJECT
  5
53
102
{ACAD_REACTORS
330
47
102
}
330
47
100
AcDbZombieObject
 90
      499
 91
      503
 93
      121
310
905313A3130304000000000000594000
  0
ACAD_PROXY_OBJECT
  5
54
102
{ACAD_REACTORS
330
47
102
}
330
47
100
AcDbZombieObject
 90
      499
 91
      503
 93
      105
310
903323A310000000000000010100
  0
ACAD_PROXY_OBJECT
  5
55
102
{ACAD_REACTORS
330
47
102
}
330
47
100
AcDbZombieObject
 90
      499
 91
      503
 93
      105
310
903343A310000000000000410100
  0
ACAD_PROXY_OBJECT
  5
56
102
{ACAD_REACTORS
330
47
102
}
330
47
100
AcDbZombieObject
 90
      499
 91
      503
 93
      105
310
903383A310000000000000810100
  0
ACAD_PROXY_OBJECT
  5
57
102
{ACAD_REACTORS
330
47
102
}
330
47
100
AcDbZombieObject
 90
      499
 91
      503
 93
      113
310
90431303A310000000000000910100
  0
ACAD_PROXY_OBJECT
  5
58
102
{ACAD_REACTORS
330
47
102
}
330
47
100
AcDbZombieObject
 90
      499
 91
      503
 93
      121
310
9053130303A310000000000001650100
  0
ACAD_PROXY_OBJECT
  5
59
102
{ACAD_REACTORS
330
47
102
}
330
47
100
AcDbZombieObject
 90
      499
 91
      503
 93
      257
310
90E312F31323822203D2031272D3022000000000000200FC000000000000284000
  0
ACAD_PROXY_OBJECT
  5
5A
102
{ACAD_REACTORS
330
47
102
}
330
47
100
AcDbZombieObject
 90
      499
 91
      503
 93
      249
310
90D312F363422203D2031272D3022000000000000240FC000000000000284000
  0
ACAD_PROXY_OBJECT
  5
5B
102
{ACAD_REACTORS
330
47
102
}
330
47
100
AcDbZombieObject
 90
      499
 91
      503
 93
      249
310
90D312F333222203D2031272D3022000000000000280FC000000000000284000
  0
ACAD_PROXY_OBJECT
  5
5C
102
{ACAD_REACTORS
330
47
102
}
330
47
100
AcDbZombieObject
 90
      499
 91
      503
 93
      249
310
90D312F313622203D2031272D30220000000000002C0FC000000000000284000
  0
ACAD_PROXY_OBJECT
  5
5D
102
{ACAD_REACTORS
330
47
102
}
330
47
100
AcDbZombieObject
 90
      499
 91
      503
 93
      249
310
90D332F333222203D2031272D30220000000000002E0FC000000000000284000
  0
ACAD_PROXY_OBJECT
  5
5E
102
{ACAD_REACTORS
330
47
102
}
330
47
100
AcDbZombieObject
 90
      499
 91
      503
 93
      241
310
90C312F3822203D2031272D3022000000000000300FC000000000000284000
  0
ACAD_PROXY_OBJECT
  5
5F
102
{ACAD_REACTORS
330
47
102
}
330
47
100
AcDbZombieObject
 90
      499
 91
      503
 93
      249
310
90D332F313622203D2031272D3022000000000000320FC000000000000284000
  0
ACAD_PROXY_OBJECT
  5
60
102
{ACAD_REACTORS
330
47
102
}
330
47
100
AcDbZombieObject
 90
      499
 91
      503
 93
      241
310
90C312F3422203D2031272D3022000000000000340FC000000000000284000
  0
ACAD_PROXY_OBJECT
  5
61
102
{ACAD_REACTORS
330
47
102
}
330
47
100
AcDbZombieObject
 90
      499
 91
      503
 93
      241
310
90C332F3822203D2031272D3022000000000000360FC000000000000284000
  0
ACAD_PROXY_OBJECT
  5
62
102
{ACAD_REACTORS
330
47
102
}
330
47
100
AcDbZombieObject
 90
      499
 91
      503
 93
      241
310
90C312F3222203D2031272D3022000000000000380FC000000000000284000
  0
ACAD_PROXY_OBJECT
  5
63
102
{ACAD_REACTORS
330
47
102
}
330
47
100
AcDbZombieObject
 90
      499
 91
      503
 93
      241
310
90C332F3422203D2031272D30220000000000003A0FC000000000000284000
  0
ACAD_PROXY_OBJECT
  5
64
102
{ACAD_REACTORS
330
47
102
}
330
47
100
AcDbZombieObject
 90
      499
 91
      503
 93
      161
310
90A3122203D2031272D30224000000000000284000
  0
ACAD_PROXY_OBJECT
  5
65
102
{ACAD_REACTORS
330
47
102
}
330
47
100
AcDbZombieObject
 90
      499
 91
      503
 93
      257
310
90E312D312F3222203D2031272D30220000000000003E0FC000000000000284000
  0
ACAD_PROXY_OBJECT
  5
66
102
{ACAD_REACTORS
330
47
102
}
330
47
100
AcDbZombieObject
 90
      499
 91
      503
 93
      225
310
90A3322203D2031272D302200000000000002100000000000000284000
  0
ACAD_PROXY_OBJECT
  5
67
102
{ACAD_REACTORS
330
47
102
}
330
47
100
AcDbZombieObject
 90
      499
 91
      503
 93
      225
310
90A3622203D2031272D302200000000000006100000000000000284000
  0
ACAD_PROXY_OBJECT
  5
68
102
{ACAD_REACTORS
330
47
102
}
330
47
100
AcDbZombieObject
 90
      499
 91
      503
 93
      249
310
90D31272D3022203D2031272D30220000000000000A100000000000000284000
  0
ACAD_PROXY_OBJECT
  5
2F
102
{ACAD_REACTORS
330
2A
102
}
330
2A
100
AcDbZombieObject
 90
      499
 91
      501
 93
      436
310
42CC9915DA5C99599C985B595049028333333333333E33F0000000000000F90107901411070040501600405405064090741402480A0340
1001
ACAD
1000
AcDbSavedByObjectVersion
1070
     0
  0
ACAD_PROXY_OBJECT
  5
32
102
{ACAD_REACTORS
330
2A
102
}
330
2A
100
AcDbZombieObject
 90
      499
 91
      501
 93
      388
310
4150985CDA58D07406404333333333333E33F0000000000000F90107A41107004050150841D405064090741402480A0350
1001
ACAD
1000
AcDbSavedByObjectVersion
1070
     0
  0
ACAD_PROXY_OBJECT
  5
36
102
{ACAD_REACTORS
330
2A
102
}
330
2A
100
AcDbZombieObject
 90
      499
 91
      501
 93
      428
310
42109C9A59DA1D195B90C409028333333333333E33F0000000000000F9010790141107004050150841D405064090741402480A029950
1001
ACAD
1000
AcDbSavedByObjectVersion
1070
     0
  0
ACAD_PROXY_OBJECT
  5
3A
102
{ACAD_REACTORS
330
2A
102
}
330
2A
100
AcDbZombieObject
 90
      499
 91
      501
 93
      452
310
42D0DBDB1BDC90DA185B99D95104090240C333333333333E33F0000000000000F90108901411070040501508421405064090741402480A0350
1001
ACAD
1000
AcDbSavedByObjectVersion
1070
     0
  0
ACAD_PROXY_OBJECT
  5
34
102
{ACAD_REACTORS
330
2A
102
}
330
2A
100
AcDbZombieObject
 90
      499
 91
      501
 93
      500
310
4290DBDB98D95C1D1D585B10940D028333333333333E33F0000000000000F90107902409070040501000000000018199010841D405064090740C02480A0340
1001
ACAD
1000
AcDbSavedByObjectVersion
1070
     0
  0
ACAD_PROXY_OBJECT
  5
35
102
{ACAD_REACTORS
330
2A
102
}
330
2A
100
AcDbZombieObject
 90
      499
 91
      501
 93
      412
310
40D11A5B50B409028333333333333E33F0000000000000F9010790141107004050150841D405064090741402480A02677FFFFFD0
1001
ACAD
1000
AcDbSavedByObjectVersion
1070
     0
  0
ACAD_PROXY_OBJECT
  5
3D
102
{ACAD_REACTORS
330
2A
102
}
330
2A
100
AcDbZombieObject
 90
      499
 91
      501
 93
      452
310
43115919D950DBDB1BDC93D999916409028333333333333E33F0000000000000F9010790141107004050150841D405064090741402480A0350
1001
ACAD
1000
AcDbSavedByObjectVersion
1070
     0
  0
ACAD_PROXY_OBJECT
  5
39
102
{ACAD_REACTORS
330
2A
102
}
330
2A
100
AcDbZombieObject
 90
      499
 91
      501
 93
      444
310
42D19858D95C185D1D195C9B90F409028333333333333E33F0000000000000F9010790141107004050150841D405064090741402480A0350
1001
ACAD
1000
AcDbSavedByObjectVersion
1070
     0
  0
ACAD_PROXY_OBJECT
  5
2B
102
{ACAD_REACTORS
330
2A
102
}
330
2A
100
AcDbZombieObject
 90
      499
 91
      501
 93
      380
310
41119B185D240901404333333333333E33F0000000000000F9010740A907004050150841D405064090741402480A1B50
1001
ACAD
1000
AcDbSavedByObjectVersion
1070
     0
  0
ACAD_PROXY_OBJECT
  5
2C
102
{ACAD_REACTORS
330
2A
102
}
330
2A
100
AcDbZombieObject
 90
      499
 91
      501
 93
      468
310
43519B185D15DA5D1A115919D95CD0140901404333333333333E33F0000000000000F90107409019070040501600405405064090741402480A1B50
1001
ACAD
1000
AcDbSavedByObjectVersion
1070
     0
  0
ACAD_PROXY_OBJECT
  5
2D
102
{ACAD_REACTORS
330
2A
102
}
330
2A
100
AcDbZombieObject
 90
      499
 91
      501
 93
      404
310
41D1DBDD5C985D5910240902404333333333333E33F0000000000000F9010740A9070040501641D405064090741402480A1B50
1001
ACAD
1000
AcDbSavedByObjectVersion
1070
     0
  0
ACAD_PROXY_OBJECT
  5
2E
102
{ACAD_REACTORS
330
2A
102
}
330
2A
100
AcDbZombieObject
 90
      499
 91
      501
 93
      492
310
4411DBDD5C985D5915DA5D1A115919D95CD0340902404333333333333E33F0000000000000F90107409019070040501600405405064090741402480A1B50
1001
ACAD
1000
AcDbSavedByObjectVersion
1070
     0
  0
ACAD_PROXY_OBJECT
  5
31
102
{ACAD_REACTORS
330
2A
102
}
330
2A
100
AcDbZombieObject
 90
      499
 91
      501
 93
      476
310
41921A5919195B90640502408333333333333E33F0000000000000F901079024090700405020000000000001110200405405064090740C02480A0340
1001
ACAD
1000
AcDbSavedByObjectVersion
1070
     0
  0
ACAD_PROXY_OBJECT
  5
3B
102
{ACAD_REACTORS
330
2A
102
}
330
2A
100
AcDbZombieObject
 90
      499
 91
      501
 93
      428
310
42529A5D1D195C93D999914409028333333333333E33F0000000000000F9010790141107004050150A41D405064090741402480A0350
1001
ACAD
1000
AcDbSavedByObjectVersion
1070
     0
  0
ACAD_PROXY_OBJECT
  5
38
102
{ACAD_REACTORS
330
2A
102
}
330
2A
100
AcDbZombieObject
 90
      499
 91
      501
 93
      444
310
42D31A5B995C185D1D195C9B90E409028333333333333E33F0000000000000F9010790141107004050750841D405064090741402483A0350
1001
ACAD
1000
AcDbSavedByObjectVersion
1070
     0
  0
ACAD_PROXY_OBJECT
  5
3C
102
{ACAD_REACTORS
330
2A
102
}
330
2A
100
AcDbZombieObject
 90
      499
 91
      501
 93
      444
310
42D3DD995C9A185B99D3D999915409028333333333333E33F0000000000000F9010790141107004050150941D405064090741402480A0350
1001
ACAD
1000
AcDbSavedByObjectVersion
1070
     0
  0
ACAD_PROXY_OBJECT
  5
33
102
{ACAD_REACTORS
330
2A
102
}
330
2A
100
AcDbZombieObject
 90
      499
 91
      501
 93
      428
310
425499585B1A5CDD1A58D08409038333333333333E33F0000000000000F9010740A907004050150800405405064090740C02480A1B40
1001
ACAD
1000
AcDbSavedByObjectVersion
1070
     0
  0
ACAD_PROXY_OBJECT
  5
42
102
{ACAD_REACTORS
330
2A
102
}
330
2A
100
AcDbZombieObject
 90
      499
 91
      501
 93
      420
310
4194DA1859195911B40902404333333333333E33F0000000000000F9010740A41107004050150800405405064090840C02480A0B40
1001
ACAD
1000
AcDbSavedByObjectVersion
1070
     0
  0
ACAD_PROXY_OBJECT
  5
41
102
{ACAD_REACTORS
330
2A
102
}
330
2A
100
AcDbZombieObject
 90
      499
 91
      501
 93
      516
310
4454DA18591959081DDA5D1A08195919D95CD1A40902404333333333333E33F0000000000000F901074090142907004050250800405405064090740C02480A0B40
1001
ACAD
1000
AcDbSavedByObjectVersion
1070
     0
  0
ACAD_PROXY_OBJECT
  5
3E
102
{ACAD_REACTORS
330
2A
102
}
330
2A
100
AcDbZombieObject
 90
      499
 91
      501
 93
      532
310
4394DA1859195CC81BD98811DC985E5174090240C333333333333E33F0000000000000F901079024090741D01000000000000111010841D405064090740C02480A0340
1001
ACAD
1000
AcDbSavedByObjectVersion
1070
     0
  0
ACAD_PROXY_OBJECT
  5
3F
102
{ACAD_REACTORS
330
2A
102
}
330
2A
100
AcDbZombieObject
 90
      499
 91
      501
 93
      476
310
41D4DAD95D18DA1E51840502408333333333333E33F0000000000000F901079024090741D01000000000000111010B41D405064090741802480A0340
1001
ACAD
1000
AcDbSavedByObjectVersion
1070
     0
  0
ACAD_PROXY_OBJECT
  5
37
102
{ACAD_REACTORS
330
2A
102
}
330
2A
100
AcDbZombieObject
 90
      499
 91
      501
 93
      412
310
41D51A1A58DAD95B90D409028333333333333E33F0000000000000F9010790141107004050150C41D405064090741402480A0350
1001
ACAD
1000
AcDbSavedByObjectVersion
1070
     0
  0
ACAD_PROXY_OBJECT
  5
30
102
{ACAD_REACTORS
330
2A
102
}
330
2A
100
AcDbZombieObject
 90
      499
 91
      501
 93
      420
310
4255DA5C99599C985B595059028333333333333E33F0000000000000F90107901411070040501600405405064090740C02480A0340
1001
ACAD
1000
AcDbSavedByObjectVersion
1070
     0
  0
ACAD_PROXY_OBJECT
  5
40
102
{ACAD_REACTORS
330
2A
102
}
330
2A
100
AcDbZombieObject
 90
      499
 91
      501
 93
      404
310
41560B54985E51940902404000000000000E03F0000000000000F9010740501907004050150841D405064090740C02480A1B40
1001
ACAD
1000
AcDbSavedByObjectVersion
1070
     0
  0
DICTIONARYVAR
  5
1F5
102
{ACAD_REACTORS
330
16A
102
}
330
16A
100
DictionaryVariables
280
     0
  1
1:1
  0
DICTIONARYVAR
  5
16F
102
{ACAD_REACTORS
330
16A
102
}
330
16A
100
DictionaryVariables
280
     0
  1
2
  0
DICTIONARYVAR
  5
170
102
{ACAD_REACTORS
330
16A
102
}
330
16A
100
DictionaryVariables
280
     0
  1
1
  0
DICTIONARYVAR
  5
1F6
102
{ACAD_REACTORS
330
16A
102
}
330
16A
100
DictionaryVariables
280
     0
  1
1
  0
DICTIONARY
  5
1F9
330
45
100
AcDbDictionary
  3
ACAD_XREC_ROUNDTRIP
360
1FA
1001
ACAD
1000
TREAT_AS_HARD
1070
     1
  0
DICTIONARY
  5
1F7
330
44
100
AcDbDictionary
  3
ACAD_XREC_ROUNDTRIP
360
1F8
1001
ACAD
1000
TREAT_AS_HARD
1070
     1
  0
DICTIONARY
  5
1FB
330
46
100
AcDbDictionary
  3
ACAD_XREC_ROUNDTRIP
360
1FC
1001
ACAD
1000
TREAT_AS_HARD
1070
     1
  0
XRECORD
  5
1FA
102
{ACAD_REACTORS
330
1F9
102
}
330
1F9
100
AcDbXrecord
102
MATERIAL
148
0.0
149
0.0
149
0.0
 93
        0
 94
      127
282
     0
 72
     1
 77
     1
171
     1
175
     1
179
     1
273
     0
  0
XRECORD
  5
1F8
102
{ACAD_REACTORS
330
1F7
102
}
330
1F7
100
AcDbXrecord
102
MATERIAL
148
0.0
149
0.0
149
0.0
 93
        0
 94
      127
282
     0
 72
     1
 77
     1
171
     1
175
     1
179
     1
273
     0
  0
XRECORD
  5
1FC
102
{ACAD_REACTORS
330
1FB
102
}
330
1FB
100
AcDbXrecord
102
MATERIAL
148
0.0
149
0.0
149
0.0
 93
        0
 94
      127
282
     0
 72
     1
 77
     1
171
     1
175
     1
179
     1
273
     0
  0
ENDSEC
  0
EOF
